<svg xmlns="http://www.w3.org/2000/svg" xmlns:xlink="http://www.w3.org/1999/xlink" width="500" zoomAndPan="magnify" viewBox="0 0 375 374.999991" height="500" preserveAspectRatio="xMidYMid meet" version="1.0"><defs><g/><clipPath id="cd6d3493fa"><path d="M 22.722656 99.878906 L 348.972656 99.878906 L 348.972656 275.378906 L 22.722656 275.378906 Z M 22.722656 99.878906 " clip-rule="nonzero"/></clipPath><clipPath id="74281d3e18"><path d="M 79 70 L 154 70 L 154 182.878906 L 79 182.878906 Z M 79 70 " clip-rule="nonzero"/></clipPath><clipPath id="59f4b6948d"><rect x="0" width="362" y="0" height="183"/></clipPath></defs><path fill="#ffffff" d="M 299.78125 157.089844 C 299.839844 156.183594 299.964844 155.289062 299.964844 154.367188 C 299.964844 124.910156 268.714844 101.03125 230.179688 101.03125 C 207.816406 101.03125 187.960938 109.109375 175.1875 121.601562 C 164.757812 116.859375 152.617188 114.089844 139.601562 114.089844 C 105.613281 114.089844 77.335938 132.671875 71.121094 157.25 C 43.628906 164.40625 23.832031 184.261719 23.832031 207.6875 C 23.832031 237.152344 55.074219 261.023438 93.613281 261.023438 C 108.457031 261.023438 122.191406 257.453125 133.496094 251.421875 C 146.125 265.113281 166.9375 274.082031 190.527344 274.082031 C 212.28125 274.082031 231.703125 266.472656 244.496094 254.535156 C 254.40625 258.675781 265.773438 261.023438 277.851562 261.023438 C 316.394531 261.023438 347.640625 237.152344 347.640625 207.6875 C 347.640625 184.109375 327.570312 164.117188 299.78125 157.089844 " fill-opacity="1" fill-rule="nonzero"/><g clip-path="url(#cd6d3493fa)"><path fill="#274a78" d="M 299.78125 157.089844 L 300.878906 157.15625 C 300.929688 156.304688 301.058594 155.382812 301.058594 154.367188 C 301.058594 139.238281 293.023438 125.585938 280.1875 115.78125 C 267.34375 105.964844 249.675781 99.933594 230.179688 99.933594 C 207.550781 99.933594 187.429688 108.097656 174.421875 120.820312 L 175.1875 121.601562 L 175.640625 120.605469 C 165.066406 115.796875 152.773438 112.996094 139.601562 112.996094 C 122.40625 112.996094 106.644531 117.691406 94.359375 125.527344 C 82.078125 133.367188 73.25 144.367188 70.054688 156.980469 L 71.121094 157.25 L 70.84375 156.1875 C 56.921875 159.8125 44.925781 166.65625 36.375 175.613281 C 27.828125 184.558594 22.730469 195.660156 22.734375 207.6875 C 22.730469 222.824219 30.765625 236.472656 43.605469 246.273438 C 56.445312 256.089844 74.117188 262.117188 93.613281 262.121094 C 108.632812 262.121094 122.535156 258.511719 134.011719 252.390625 L 133.496094 251.421875 L 132.6875 252.164062 C 145.574219 266.117188 166.660156 275.167969 190.527344 275.175781 C 212.53125 275.175781 232.214844 267.492188 245.246094 255.34375 L 244.496094 254.535156 L 244.074219 255.550781 C 254.125 259.746094 265.625 262.121094 277.851562 262.121094 C 297.351562 262.117188 315.019531 256.089844 327.867188 246.273438 C 340.707031 236.472656 348.742188 222.824219 348.738281 207.6875 C 348.742188 195.582031 343.578125 184.410156 334.921875 175.425781 C 326.265625 166.429688 314.125 159.585938 300.054688 156.027344 L 299.78125 157.089844 L 300.878906 157.15625 L 299.78125 157.089844 L 299.515625 158.15625 C 313.230469 161.621094 325.015625 168.289062 333.339844 176.945312 C 341.671875 185.605469 346.542969 196.21875 346.542969 207.6875 C 346.542969 222.015625 338.953125 235.035156 326.535156 244.53125 C 314.121094 254.023438 296.898438 259.925781 277.851562 259.925781 C 265.914062 259.925781 254.695312 257.605469 244.921875 253.527344 L 244.265625 253.253906 L 243.75 253.734375 C 231.191406 265.449219 212.023438 272.984375 190.527344 272.984375 C 167.214844 272.984375 146.683594 264.105469 134.304688 250.675781 L 133.726562 250.054688 L 132.980469 250.453125 C 121.839844 256.402344 108.28125 259.925781 93.613281 259.925781 C 74.574219 259.925781 57.351562 254.023438 44.9375 244.53125 C 32.519531 235.035156 24.929688 222.015625 24.925781 207.6875 C 24.929688 196.289062 29.734375 185.746094 37.960938 177.125 C 46.183594 168.507812 57.832031 161.84375 71.398438 158.3125 L 72.023438 158.152344 L 72.1875 157.519531 C 75.207031 145.558594 83.632812 134.976562 95.535156 127.378906 C 107.441406 119.78125 122.804688 115.1875 139.601562 115.1875 C 152.464844 115.1875 164.449219 117.925781 174.734375 122.601562 L 175.414062 122.914062 L 175.957031 122.386719 C 188.484375 110.117188 208.078125 102.121094 230.179688 102.121094 C 249.222656 102.121094 266.445312 108.03125 278.855469 117.523438 C 291.277344 127.023438 298.867188 140.042969 298.867188 154.367188 C 298.867188 155.191406 298.75 156.0625 298.691406 157.023438 L 298.632812 157.929688 L 299.515625 158.15625 L 299.78125 157.089844 " fill-opacity="1" fill-rule="nonzero"/></g><g transform="matrix(1, 0, 0, 1, 7, 90)"><g clip-path="url(#59f4b6948d)"><g fill="#ffffff" fill-opacity="1"><g transform="translate(3.823784, 143.57839)"><g><path d="M 41.789062 11.117188 C 34.351562 11.117188 27.417969 9.945312 20.980469 7.605469 C 14.171875 5.128906 8.25 1.203125 3.207031 -4.175781 L 3.003906 -4.394531 C 0.160156 -7.628906 -1.042969 -11.125 -0.605469 -14.882812 C -0.351562 -17.058594 0.449219 -19.046875 1.800781 -20.855469 C 2.78125 -22.171875 4.027344 -23.332031 5.539062 -24.339844 L 10.816406 -16.421875 L 4.996094 -23.949219 C 6.402344 -25.035156 7.898438 -25.820312 9.492188 -26.308594 C 11.386719 -26.890625 13.304688 -27.027344 15.246094 -26.71875 C 18.410156 -26.214844 21.230469 -24.613281 23.703125 -21.917969 L 16.691406 -15.488281 L 23.273438 -22.355469 C 27.839844 -17.976562 34.058594 -15.789062 41.925781 -15.789062 C 45.015625 -15.789062 47.808594 -16.230469 50.296875 -17.113281 C 52.160156 -17.773438 53.601562 -18.71875 54.621094 -19.953125 C 55.300781 -20.773438 55.640625 -21.957031 55.640625 -23.5 C 55.640625 -25.242188 55.347656 -26.644531 54.761719 -27.703125 C 54.671875 -27.871094 54.433594 -28.109375 54.042969 -28.421875 C 53.304688 -29.023438 52.285156 -29.625 50.984375 -30.230469 C 47.726562 -31.753906 42.542969 -33.152344 35.433594 -34.429688 C 24.75 -36.445312 16.539062 -40.296875 10.796875 -45.976562 C 4.554688 -52.15625 1.433594 -60.0625 1.433594 -69.695312 C 1.433594 -76.632812 3.1875 -82.824219 6.6875 -88.261719 C 10.136719 -93.621094 14.878906 -97.777344 20.914062 -100.734375 C 26.6875 -103.5625 33.242188 -104.976562 40.589844 -104.976562 C 47.113281 -104.976562 53.171875 -103.898438 58.769531 -101.734375 C 64.167969 -99.652344 69.207031 -96.75 73.882812 -93.027344 L 74.148438 -92.816406 L 74.402344 -92.585938 C 77.5 -89.734375 79.089844 -86.472656 79.171875 -82.796875 C 79.222656 -80.609375 78.710938 -78.53125 77.636719 -76.566406 C 76.832031 -75.097656 75.742188 -73.757812 74.359375 -72.550781 L 68.09375 -79.710938 L 74.820312 -72.980469 C 72.015625 -70.175781 68.753906 -68.8125 65.042969 -68.894531 C 61.8125 -68.96875 58.785156 -70.1875 55.964844 -72.558594 L 62.085938 -79.84375 L 56.34375 -72.257812 C 53.824219 -74.164062 51.28125 -75.578125 48.722656 -76.496094 C 46.292969 -77.371094 43.535156 -77.804688 40.457031 -77.804688 C 36.523438 -77.804688 33.421875 -76.953125 31.15625 -75.246094 C 30.453125 -74.714844 29.9375 -74.101562 29.617188 -73.40625 C 29.210938 -72.523438 29.007812 -71.375 29.007812 -69.960938 C 29.007812 -67.773438 29.609375 -66.105469 30.8125 -64.949219 C 31.5 -64.292969 32.695312 -63.628906 34.402344 -62.949219 C 36.679688 -62.046875 39.578125 -61.273438 43.101562 -60.628906 C 56.292969 -58.277344 66.042969 -54.339844 72.355469 -48.816406 C 75.960938 -45.660156 78.671875 -41.898438 80.484375 -37.523438 C 82.214844 -33.355469 83.082031 -28.722656 83.082031 -23.632812 C 83.082031 -16.285156 81.054688 -9.882812 77.003906 -4.414062 C 73.160156 0.773438 68.027344 4.703125 61.605469 7.378906 C 55.628906 9.871094 49.023438 11.117188 41.789062 11.117188 Z M 41.789062 -7.910156 C 46.484375 -7.910156 50.652344 -8.667969 54.285156 -10.183594 C 57.480469 -11.511719 59.957031 -13.367188 61.71875 -15.746094 C 63.277344 -17.847656 64.054688 -20.476562 64.054688 -23.632812 C 64.054688 -26.195312 63.671875 -28.398438 62.910156 -30.234375 C 62.230469 -31.871094 61.203125 -33.292969 59.824219 -34.496094 C 56.167969 -37.699219 49.453125 -40.167969 39.679688 -41.910156 C 29.53125 -43.765625 22.1875 -46.867188 17.652344 -51.207031 C 12.539062 -56.109375 9.980469 -62.359375 9.980469 -69.960938 C 9.980469 -74.160156 10.765625 -77.960938 12.339844 -81.375 C 14 -84.972656 16.457031 -87.996094 19.714844 -90.449219 C 25.367188 -94.703125 32.28125 -96.832031 40.457031 -96.832031 C 45.742188 -96.832031 50.640625 -96.023438 55.152344 -94.40625 C 59.535156 -92.832031 63.761719 -90.503906 67.824219 -87.429688 L 68.019531 -87.28125 L 68.203125 -87.128906 C 68.09375 -87.222656 67.902344 -87.328125 67.636719 -87.449219 C 66.984375 -87.746094 66.261719 -87.902344 65.46875 -87.917969 C 64.507812 -87.941406 63.601562 -87.753906 62.75 -87.363281 C 62.1875 -87.105469 61.726562 -86.796875 61.367188 -86.4375 L 61.589844 -86.660156 L 61.828125 -86.867188 C 61.515625 -86.59375 61.21875 -86.199219 60.9375 -85.691406 C 60.386719 -84.679688 60.125 -83.570312 60.152344 -82.363281 C 60.175781 -81.257812 60.441406 -80.261719 60.941406 -79.375 C 61.148438 -79.007812 61.34375 -78.746094 61.519531 -78.582031 L 67.960938 -85.582031 L 62.039062 -78.140625 C 58.878906 -80.648438 55.507812 -82.597656 51.914062 -83.984375 C 48.523438 -85.296875 44.746094 -85.949219 40.589844 -85.949219 C 36.183594 -85.949219 32.417969 -85.183594 29.289062 -83.648438 C 26.421875 -82.246094 24.222656 -80.351562 22.6875 -77.964844 C 21.203125 -75.660156 20.460938 -72.90625 20.460938 -69.695312 C 20.460938 -65.355469 21.703125 -61.957031 24.183594 -59.5 C 27.164062 -56.546875 32.039062 -54.433594 38.800781 -53.15625 C 47.535156 -51.585938 54.277344 -49.691406 59.03125 -47.472656 C 64.90625 -44.734375 69.03125 -41.214844 71.410156 -36.917969 C 73.582031 -32.992188 74.667969 -28.519531 74.667969 -23.5 C 74.667969 -17.386719 72.875 -12.160156 69.28125 -7.820312 C 66.027344 -3.890625 61.816406 -1.007812 56.652344 0.824219 C 52.109375 2.433594 47.199219 3.238281 41.925781 3.238281 C 28.960938 3.238281 18.355469 -0.714844 10.105469 -8.621094 L 9.882812 -8.832031 L 9.675781 -9.058594 C 9.769531 -8.957031 9.9375 -8.832031 10.179688 -8.679688 C 10.78125 -8.304688 11.476562 -8.054688 12.257812 -7.929688 C 13.21875 -7.773438 14.160156 -7.839844 15.074219 -8.121094 C 15.6875 -8.308594 16.207031 -8.566406 16.632812 -8.894531 L 16.367188 -8.691406 L 16.09375 -8.507812 C 16.402344 -8.710938 16.71875 -9.035156 17.042969 -9.46875 C 17.738281 -10.398438 18.152344 -11.46875 18.296875 -12.6875 C 18.433594 -13.859375 18.285156 -14.953125 17.859375 -15.972656 C 17.675781 -16.410156 17.484375 -16.742188 17.289062 -16.964844 L 10.148438 -10.679688 L 17.085938 -17.1875 C 20.058594 -14.019531 23.523438 -11.714844 27.484375 -10.277344 C 31.820312 -8.699219 36.589844 -7.910156 41.789062 -7.910156 Z M 41.789062 -7.910156 "/></g></g></g><g clip-path="url(#74281d3e18)"><g fill="#ffffff" fill-opacity="1"><g transform="translate(84.997699, 143.57839)"><g><path d="M 13.085938 38.351562 C 11.863281 38.351562 10.660156 38.292969 9.484375 38.167969 C 8.347656 38.046875 7.191406 37.871094 6.011719 37.632812 L 7.878906 28.304688 L 6.929688 37.773438 C 3.171875 37.394531 0.140625 35.941406 -2.167969 33.402344 C -4.484375 30.855469 -5.640625 27.6875 -5.640625 23.898438 C -5.640625 22.253906 -5.394531 20.714844 -4.898438 19.289062 C -4.210938 17.300781 -3.097656 15.628906 -1.5625 14.269531 C 1.132812 11.882812 4.464844 10.921875 8.433594 11.378906 L 8.59375 11.394531 L 8.753906 11.421875 C 10.066406 11.617188 11.332031 11.714844 12.550781 11.714844 C 13.265625 11.714844 13.789062 11.664062 14.121094 11.566406 C 13.953125 11.617188 13.734375 11.765625 13.464844 12.011719 C 13.570312 11.914062 13.765625 11.632812 14.042969 11.164062 C 14.535156 10.328125 15.046875 9.234375 15.570312 7.890625 L 19.800781 -3.351562 L 28.707031 0 L 19.851562 3.472656 L -3.25 -55.40625 C -4.902344 -59.421875 -4.902344 -63.167969 -3.25 -66.640625 C -2.152344 -68.949219 -0.5 -70.710938 1.707031 -71.929688 C 3.5625 -72.957031 5.617188 -73.46875 7.878906 -73.46875 L 8.277344 -73.46875 C 11.441406 -73.46875 14.257812 -72.625 16.722656 -70.9375 C 19.101562 -69.308594 20.898438 -67.058594 22.113281 -64.191406 L 22.183594 -64.023438 L 41.339844 -13.519531 L 32.445312 -10.148438 L 23.511719 -13.425781 L 41.9375 -63.628906 L 50.871094 -60.347656 L 41.84375 -63.359375 C 42.886719 -66.480469 44.636719 -68.941406 47.097656 -70.738281 C 49.589844 -72.558594 52.496094 -73.46875 55.808594 -73.46875 C 57.957031 -73.46875 59.925781 -73.042969 61.710938 -72.191406 C 63.988281 -71.101562 65.753906 -69.460938 67.007812 -67.273438 C 68.109375 -65.34375 68.660156 -63.230469 68.660156 -60.933594 C 68.660156 -59.234375 68.347656 -57.496094 67.71875 -55.714844 L 40.558594 17.207031 C 38.132812 23.910156 34.847656 29.007812 30.703125 32.503906 C 26.082031 36.402344 20.210938 38.351562 13.085938 38.351562 Z M 13.085938 19.324219 C 15.574219 19.324219 17.355469 18.871094 18.433594 17.964844 C 19.984375 16.652344 21.417969 14.1875 22.726562 10.566406 L 49.777344 -62.046875 C 49.679688 -61.777344 49.632812 -61.40625 49.632812 -60.933594 C 49.632812 -59.859375 49.917969 -58.828125 50.488281 -57.832031 C 51.203125 -56.578125 52.214844 -55.640625 53.515625 -55.019531 C 54.320312 -54.632812 55.085938 -54.441406 55.808594 -54.441406 C 56.632812 -54.441406 57.464844 -54.75 58.3125 -55.367188 C 59.128906 -55.960938 59.65625 -56.621094 59.894531 -57.339844 L 59.851562 -57.207031 L 32.589844 17.0625 L 4.457031 -57.109375 L 13.351562 -60.484375 L 4.589844 -56.777344 C 4.824219 -56.21875 5.289062 -55.707031 5.976562 -55.234375 C 6.75 -54.707031 7.515625 -54.441406 8.277344 -54.441406 L 7.878906 -54.441406 C 8.890625 -54.441406 9.902344 -54.71875 10.910156 -55.277344 C 12.269531 -56.027344 13.277344 -57.089844 13.929688 -58.460938 C 14.429688 -59.507812 14.640625 -60.5625 14.5625 -61.625 C 14.53125 -62.027344 14.5 -62.269531 14.464844 -62.355469 L 38.898438 -0.0703125 L 33.296875 14.808594 C 31.335938 19.832031 29.011719 23.574219 26.324219 26.039062 C 22.902344 29.175781 18.3125 30.742188 12.550781 30.742188 C 10.386719 30.742188 8.179688 30.574219 5.933594 30.238281 L 7.34375 20.828125 L 6.253906 30.28125 C 6.722656 30.332031 7.253906 30.296875 7.851562 30.164062 C 9.03125 29.910156 10.09375 29.359375 11.042969 28.523438 C 12 27.675781 12.675781 26.675781 13.078125 25.523438 C 13.28125 24.929688 13.386719 24.390625 13.386719 23.898438 C 13.386719 23.570312 13.316406 23.1875 13.175781 22.757812 C 12.921875 21.96875 12.5 21.25 11.914062 20.605469 C 11.328125 19.960938 10.660156 19.476562 9.90625 19.152344 C 9.5 18.976562 9.140625 18.871094 8.824219 18.839844 L 9.285156 18.886719 L 9.742188 18.976562 C 10.34375 19.097656 10.921875 19.1875 11.476562 19.246094 C 11.992188 19.300781 12.527344 19.324219 13.085938 19.324219 Z M 13.085938 19.324219 "/></g></g></g></g><g fill="#ffffff" fill-opacity="1"><g transform="translate(149.349383, 143.57839)"><g><path d="M 14.019531 9.511719 C 9.894531 9.511719 6.550781 8.144531 3.980469 5.414062 C 1.570312 2.847656 0.367188 -0.425781 0.367188 -4.40625 L 0.367188 -59.546875 C 0.367188 -63.40625 1.476562 -66.601562 3.703125 -69.132812 C 5.066406 -70.683594 6.726562 -71.832031 8.683594 -72.574219 C 10.253906 -73.167969 11.945312 -73.46875 13.753906 -73.46875 C 17.175781 -73.46875 20.0625 -72.578125 22.40625 -70.800781 C 24.039062 -69.558594 25.269531 -68.003906 26.09375 -66.128906 C 26.789062 -64.542969 27.136719 -62.839844 27.136719 -61.015625 L 27.269531 -55.082031 L 17.757812 -54.875 L 9.878906 -60.207031 C 12.714844 -64.398438 16.453125 -67.882812 21.089844 -70.652344 C 26.019531 -73.597656 31.539062 -75.070312 37.652344 -75.070312 C 47.210938 -75.070312 55.015625 -71.914062 61.074219 -65.601562 C 67.023438 -59.398438 69.996094 -50.972656 69.996094 -40.320312 L 69.996094 -4.40625 C 69.996094 -0.484375 68.839844 2.75 66.519531 5.296875 C 65.140625 6.816406 63.46875 7.9375 61.503906 8.65625 C 59.945312 9.226562 58.269531 9.511719 56.476562 9.511719 C 54.683594 9.511719 53.007812 9.226562 51.449219 8.65625 C 49.488281 7.9375 47.816406 6.816406 46.433594 5.296875 C 44.117188 2.75 42.957031 -0.484375 42.957031 -4.40625 L 42.957031 -39.121094 C 42.957031 -42.804688 42.347656 -45.285156 41.125 -46.5625 C 40.015625 -47.71875 38.457031 -48.300781 36.449219 -48.300781 C 34.53125 -48.300781 32.890625 -47.917969 31.523438 -47.160156 C 30.21875 -46.433594 29.226562 -45.496094 28.542969 -44.347656 C 27.875 -43.21875 27.539062 -41.921875 27.539062 -40.457031 L 27.539062 -4.40625 C 27.539062 -0.484375 26.378906 2.75 24.0625 5.296875 C 22.679688 6.816406 21.007812 7.9375 19.046875 8.65625 C 17.488281 9.226562 15.8125 9.511719 14.019531 9.511719 Z M 14.019531 -9.511719 C 13.5625 -9.511719 13.054688 -9.410156 12.496094 -9.207031 C 11.535156 -8.855469 10.699219 -8.285156 9.984375 -7.5 C 9.355469 -6.808594 8.917969 -6.054688 8.667969 -5.238281 C 8.5625 -4.886719 8.511719 -4.613281 8.511719 -4.40625 L 8.511719 -40.457031 C 8.511719 -45.398438 9.734375 -49.933594 12.179688 -54.054688 C 14.613281 -58.15625 17.980469 -61.402344 22.285156 -63.792969 C 26.523438 -66.148438 31.246094 -67.324219 36.449219 -67.324219 C 43.875 -67.324219 50.015625 -64.789062 54.871094 -59.71875 C 59.613281 -54.761719 61.984375 -47.898438 61.984375 -39.121094 L 61.984375 -4.40625 C 61.984375 -4.613281 61.933594 -4.886719 61.828125 -5.238281 C 61.578125 -6.054688 61.140625 -6.808594 60.511719 -7.5 C 59.800781 -8.285156 58.960938 -8.855469 58 -9.207031 C 57.445312 -9.410156 56.9375 -9.511719 56.476562 -9.511719 C 56.019531 -9.511719 55.511719 -9.410156 54.953125 -9.207031 C 53.992188 -8.855469 53.15625 -8.285156 52.441406 -7.5 C 51.8125 -6.808594 51.375 -6.054688 51.128906 -5.238281 C 51.023438 -4.886719 50.96875 -4.613281 50.96875 -4.40625 L 50.96875 -40.320312 C 50.96875 -45.871094 49.761719 -49.90625 47.34375 -52.429688 C 45.03125 -54.839844 41.800781 -56.042969 37.652344 -56.042969 C 35.039062 -56.042969 32.773438 -55.46875 30.847656 -54.320312 C 28.632812 -52.996094 26.894531 -51.402344 25.636719 -49.542969 L 8.894531 -24.796875 L 8.109375 -61.015625 C 8.109375 -60.175781 8.296875 -59.328125 8.671875 -58.476562 C 9.171875 -57.335938 9.917969 -56.390625 10.90625 -55.640625 C 11.613281 -55.105469 12.347656 -54.742188 13.113281 -54.546875 C 13.394531 -54.476562 13.609375 -54.441406 13.753906 -54.441406 C 14.269531 -54.441406 14.828125 -54.554688 15.433594 -54.785156 C 16.421875 -55.160156 17.277344 -55.753906 17.996094 -56.574219 C 18.597656 -57.261719 19.019531 -58.003906 19.253906 -58.800781 C 19.347656 -59.125 19.394531 -59.371094 19.394531 -59.546875 L 19.394531 -4.40625 C 19.394531 -4.640625 19.335938 -4.945312 19.21875 -5.320312 C 18.957031 -6.15625 18.5 -6.921875 17.847656 -7.613281 C 17.140625 -8.367188 16.320312 -8.910156 15.390625 -9.242188 C 14.878906 -9.421875 14.421875 -9.511719 14.019531 -9.511719 Z M 14.019531 -9.511719 "/></g></g></g><g fill="#ffffff" fill-opacity="1"><g transform="translate(219.842518, 143.57839)"><g><path d="M 35.914062 10.980469 C 28.386719 10.980469 21.625 9.09375 15.625 5.3125 C 9.695312 1.578125 5.042969 -3.609375 1.667969 -10.238281 C -1.601562 -16.667969 -3.238281 -23.9375 -3.238281 -32.042969 C -3.238281 -40.164062 -1.597656 -47.417969 1.683594 -53.8125 C 5.058594 -60.386719 9.703125 -65.539062 15.625 -69.265625 C 21.625 -73.046875 28.386719 -74.9375 35.914062 -74.9375 C 46.101562 -74.9375 54.738281 -71.574219 61.824219 -64.847656 L 55.277344 -57.945312 L 61.078125 -65.488281 C 62.714844 -64.226562 63.988281 -62.765625 64.894531 -61.101562 C 66.074219 -58.941406 66.5625 -56.648438 66.359375 -54.21875 C 66.046875 -50.472656 64.359375 -47.34375 61.300781 -44.84375 L 60.941406 -44.546875 L 60.554688 -44.289062 C 57.578125 -42.308594 54.53125 -41.480469 51.410156 -41.808594 C 48.78125 -42.085938 46.179688 -43.214844 43.601562 -45.199219 L 43.34375 -45.394531 L 43.101562 -45.609375 C 41.074219 -47.402344 38.675781 -48.300781 35.914062 -48.300781 C 34.175781 -48.300781 32.644531 -48 31.324219 -47.398438 C 30.015625 -46.804688 28.800781 -45.863281 27.683594 -44.574219 C 25.183594 -41.6875 23.933594 -37.511719 23.933594 -32.042969 C 23.933594 -26.558594 25.191406 -22.351562 27.714844 -19.414062 C 28.832031 -18.109375 30.046875 -17.15625 31.355469 -16.558594 C 32.664062 -15.957031 34.1875 -15.65625 35.914062 -15.65625 C 38.679688 -15.65625 40.976562 -16.5 42.800781 -18.191406 L 42.984375 -18.363281 L 43.175781 -18.523438 C 45.628906 -20.566406 48.210938 -21.78125 50.925781 -22.167969 C 54.257812 -22.644531 57.46875 -21.855469 60.554688 -19.796875 L 60.941406 -19.539062 L 61.300781 -19.246094 C 64.351562 -16.75 66.035156 -13.660156 66.355469 -9.96875 C 66.550781 -7.703125 66.140625 -5.53125 65.125 -3.449219 C 64.351562 -1.871094 63.257812 -0.429688 61.835938 0.871094 C 54.742188 7.613281 46.101562 10.980469 35.914062 10.980469 Z M 35.914062 -8.042969 C 41.039062 -8.042969 45.394531 -9.75 48.980469 -13.15625 C 48.628906 -12.832031 48.3125 -12.382812 48.03125 -11.804688 C 47.503906 -10.726562 47.292969 -9.5625 47.398438 -8.320312 C 47.480469 -7.410156 47.746094 -6.566406 48.199219 -5.792969 C 48.507812 -5.265625 48.859375 -4.839844 49.25 -4.519531 L 55.277344 -11.882812 L 50 -3.96875 C 50.28125 -3.78125 50.640625 -3.621094 51.082031 -3.496094 C 51.890625 -3.261719 52.734375 -3.207031 53.617188 -3.332031 C 54.195312 -3.414062 54.707031 -3.570312 55.148438 -3.796875 C 55.246094 -3.84375 55.328125 -3.890625 55.390625 -3.9375 C 55.398438 -3.941406 55.402344 -3.945312 55.40625 -3.945312 C 55.394531 -3.933594 55.375 -3.921875 55.359375 -3.90625 L 49.265625 -11.214844 L 55.734375 -4.238281 C 50.261719 0.835938 43.65625 3.371094 35.914062 3.371094 C 31.414062 3.371094 27.25 2.492188 23.417969 0.734375 C 19.585938 -1.023438 16.207031 -3.609375 13.277344 -7.019531 C 7.695312 -13.519531 4.90625 -21.863281 4.90625 -32.042969 C 4.90625 -42.242188 7.707031 -50.574219 13.304688 -57.035156 C 16.238281 -60.417969 19.621094 -62.980469 23.449219 -64.722656 C 27.273438 -66.457031 31.425781 -67.324219 35.914062 -67.324219 C 43.480469 -67.324219 50.074219 -64.839844 55.699219 -59.867188 L 49.402344 -52.738281 L 55.203125 -60.28125 L 55.199219 -60.25 C 54.691406 -60.5 54.09375 -60.660156 53.402344 -60.730469 C 52.480469 -60.828125 51.617188 -60.746094 50.8125 -60.484375 C 50.460938 -60.367188 50.191406 -60.25 50 -60.121094 L 55.277344 -52.203125 L 49.25 -59.566406 C 48.832031 -59.226562 48.464844 -58.777344 48.152344 -58.226562 C 47.71875 -57.472656 47.46875 -56.664062 47.398438 -55.796875 C 47.285156 -54.4375 47.550781 -53.167969 48.191406 -51.988281 C 48.566406 -51.304688 48.992188 -50.777344 49.476562 -50.40625 L 49.085938 -50.707031 L 48.726562 -51.046875 C 45.308594 -54.289062 41.039062 -55.910156 35.914062 -55.910156 C 32.050781 -55.910156 28.667969 -54.996094 25.765625 -53.167969 C 22.785156 -51.289062 20.398438 -48.609375 18.609375 -45.125 C 16.730469 -41.457031 15.789062 -37.097656 15.789062 -32.042969 C 15.789062 -26.976562 16.734375 -22.585938 18.625 -18.867188 C 20.414062 -15.351562 22.792969 -12.660156 25.765625 -10.785156 C 28.667969 -8.957031 32.050781 -8.042969 35.914062 -8.042969 Z M 35.914062 -8.042969 "/></g></g></g><g fill="#ffffff" fill-opacity="1"><g transform="translate(284.594728, 143.57839)"><g><path d="M 27.105469 10.714844 C 18.691406 10.835938 11.679688 8.765625 6.066406 4.507812 C 2.851562 2.070312 0.425781 -0.953125 -1.207031 -4.550781 C -2.738281 -7.9375 -3.503906 -11.714844 -3.503906 -15.886719 C -3.503906 -22.601562 -1.242188 -28.464844 3.285156 -33.480469 C 7.152344 -37.761719 12.007812 -41.089844 17.851562 -43.460938 C 23.492188 -45.753906 29.335938 -46.898438 35.382812 -46.898438 C 44.222656 -46.898438 51.433594 -44.628906 57.007812 -40.089844 L 51.003906 -32.710938 L 41.488281 -32.710938 L 41.488281 -43.660156 C 41.488281 -45.652344 41.328125 -47.148438 41.007812 -48.152344 C 40.96875 -48.269531 40.9375 -48.363281 40.902344 -48.433594 C 40.90625 -48.429688 40.914062 -48.414062 40.9375 -48.378906 C 41.101562 -48.128906 41.335938 -47.890625 41.644531 -47.667969 C 41.457031 -47.804688 41.003906 -47.953125 40.277344 -48.121094 C 38.972656 -48.417969 37.292969 -48.566406 35.25 -48.566406 C 33.101562 -48.566406 30.652344 -48.21875 27.902344 -47.523438 C 25.054688 -46.800781 22.511719 -45.882812 20.277344 -44.765625 L 19.921875 -44.585938 L 19.554688 -44.441406 C 16.441406 -43.195312 13.46875 -42.867188 10.636719 -43.460938 C 8.800781 -43.84375 7.132812 -44.589844 5.636719 -45.699219 C 4.269531 -46.707031 3.125 -47.960938 2.191406 -49.46875 L 2.113281 -49.59375 L 2.039062 -49.71875 C 1.109375 -51.332031 0.515625 -52.988281 0.257812 -54.679688 C -0.078125 -56.898438 0.160156 -59.03125 0.980469 -61.078125 C 2.285156 -64.339844 4.792969 -66.8125 8.5 -68.484375 L 12.417969 -59.816406 L 8.070312 -68.277344 C 11.992188 -70.292969 16.367188 -71.921875 21.1875 -73.167969 C 26.105469 -74.433594 30.792969 -75.070312 35.25 -75.070312 C 45.601562 -75.070312 53.570312 -72.800781 59.144531 -68.261719 C 65.3125 -63.242188 68.394531 -55.042969 68.394531 -43.660156 L 68.394531 -8.277344 C 68.394531 -8.667969 68.304688 -9.144531 68.128906 -9.714844 C 67.519531 -11.664062 66.289062 -13.191406 64.441406 -14.300781 C 63.566406 -14.824219 62.730469 -15.144531 61.929688 -15.257812 L 61.914062 -15.265625 C 62.027344 -15.257812 62.175781 -15.253906 62.351562 -15.253906 C 65.007812 -15.253906 67.402344 -14.71875 69.542969 -13.648438 C 71.550781 -12.644531 73.125 -11.222656 74.273438 -9.371094 C 75.425781 -7.515625 76.003906 -5.457031 76.003906 -3.203125 C 76.003906 0.265625 74.957031 3.214844 72.863281 5.644531 C 70.792969 8.046875 68.058594 9.515625 64.65625 10.0625 L 63.152344 0.667969 L 65.460938 9.898438 C 64.335938 10.179688 63.160156 10.386719 61.933594 10.523438 C 60.785156 10.652344 59.675781 10.714844 58.613281 10.714844 C 52.324219 10.714844 47.785156 8.765625 44.996094 4.863281 C 43.03125 2.105469 41.910156 -1.933594 41.636719 -7.257812 L 51.136719 -7.742188 L 58.167969 -1.335938 C 54.253906 2.957031 49.210938 6.070312 43.035156 8.007812 C 37.632812 9.703125 32.34375 10.605469 27.167969 10.714844 Z M 26.773438 -8.308594 C 30.140625 -8.378906 33.664062 -8.992188 37.339844 -10.144531 C 40.246094 -11.058594 42.5 -12.394531 44.105469 -14.152344 L 59.46875 -31.003906 L 60.636719 -8.230469 C 60.699219 -7.039062 60.804688 -6.121094 60.949219 -5.472656 C 60.96875 -5.386719 60.984375 -5.320312 61 -5.269531 C 61.003906 -5.261719 61.003906 -5.257812 61.003906 -5.253906 C 61 -5.269531 60.996094 -5.285156 60.984375 -5.304688 C 60.878906 -5.578125 60.710938 -5.875 60.480469 -6.195312 C 59.699219 -7.292969 58.792969 -8.003906 57.757812 -8.332031 C 57.699219 -8.351562 57.652344 -8.363281 57.613281 -8.371094 C 57.636719 -8.367188 57.671875 -8.363281 57.722656 -8.355469 C 57.957031 -8.328125 58.25 -8.3125 58.613281 -8.3125 C 58.972656 -8.3125 59.382812 -8.335938 59.832031 -8.386719 C 60.210938 -8.429688 60.546875 -8.488281 60.847656 -8.5625 L 61.246094 -8.660156 L 61.648438 -8.726562 C 61.261719 -8.664062 60.847656 -8.523438 60.40625 -8.304688 C 59.664062 -7.941406 59.015625 -7.433594 58.449219 -6.777344 C 57.878906 -6.117188 57.464844 -5.382812 57.210938 -4.582031 C 57.054688 -4.085938 56.976562 -3.628906 56.976562 -3.203125 C 56.976562 -1.839844 57.355469 -0.550781 58.109375 0.660156 C 58.855469 1.863281 59.828125 2.765625 61.035156 3.367188 C 61.574219 3.636719 62.011719 3.773438 62.351562 3.773438 C 59.171875 3.773438 56.605469 3.1875 54.652344 2.015625 C 52.359375 0.640625 50.796875 -1.378906 49.96875 -4.039062 C 49.566406 -5.316406 49.367188 -6.730469 49.367188 -8.277344 L 49.367188 -43.660156 C 49.367188 -46.8125 49.050781 -49.339844 48.421875 -51.234375 C 48.046875 -52.355469 47.617188 -53.113281 47.132812 -53.503906 C 46.289062 -54.191406 45.042969 -54.753906 43.390625 -55.183594 C 41.199219 -55.757812 38.484375 -56.042969 35.25 -56.042969 C 32.402344 -56.042969 29.300781 -55.609375 25.941406 -54.742188 C 22.488281 -53.851562 19.429688 -52.722656 16.761719 -51.351562 L 16.550781 -51.242188 L 16.332031 -51.144531 C 16.496094 -51.21875 16.710938 -51.375 16.984375 -51.609375 C 17.703125 -52.238281 18.257812 -53.039062 18.648438 -54.011719 C 19.109375 -55.171875 19.25 -56.347656 19.070312 -57.542969 C 18.964844 -58.210938 18.785156 -58.773438 18.519531 -59.230469 L 10.28125 -54.476562 L 18.371094 -59.480469 C 18.015625 -60.050781 17.542969 -60.558594 16.945312 -61 C 16.214844 -61.539062 15.410156 -61.898438 14.53125 -62.085938 C 13.910156 -62.214844 13.328125 -62.238281 12.789062 -62.160156 C 12.664062 -62.144531 12.558594 -62.121094 12.46875 -62.097656 L 12.488281 -62.105469 L 16.023438 -53.273438 L 11.765625 -61.78125 C 15.230469 -63.511719 19.050781 -64.910156 23.234375 -65.96875 C 27.515625 -67.050781 31.519531 -67.59375 35.25 -67.59375 C 42.839844 -67.59375 48.71875 -66.066406 52.886719 -63.019531 C 57.972656 -59.292969 60.515625 -52.839844 60.515625 -43.660156 L 60.515625 -12.703125 L 44.996094 -25.332031 C 42.917969 -27.023438 39.714844 -27.871094 35.382812 -27.871094 C 31.8125 -27.871094 28.355469 -27.191406 25.007812 -25.832031 C 21.859375 -24.554688 19.328125 -22.855469 17.410156 -20.730469 C 16.152344 -19.335938 15.523438 -17.722656 15.523438 -15.886719 C 15.523438 -14.453125 15.722656 -13.292969 16.125 -12.40625 C 16.429688 -11.730469 16.910156 -11.148438 17.566406 -10.648438 C 19.699219 -9.03125 22.789062 -8.253906 26.835938 -8.3125 Z M 27.171875 -15.652344 C 30.472656 -15.722656 33.507812 -16.222656 36.28125 -17.160156 C 38.441406 -17.886719 40.0625 -18.839844 41.148438 -20.011719 C 41.511719 -20.402344 41.671875 -20.953125 41.636719 -21.664062 L 51.136719 -22.164062 L 41.667969 -21.246094 C 41.703125 -20.898438 41.851562 -20.539062 42.121094 -20.171875 C 42.234375 -20.015625 42.34375 -19.894531 42.457031 -19.804688 L 42.480469 -19.789062 C 42.445312 -19.808594 42.398438 -19.835938 42.34375 -19.863281 C 40.984375 -20.542969 38.90625 -20.855469 36.109375 -20.796875 C 33.460938 -20.796875 30.976562 -20.367188 28.65625 -19.511719 C 26.648438 -18.769531 25.101562 -17.839844 24.023438 -16.714844 C 23.695312 -16.371094 23.53125 -16.054688 23.53125 -15.753906 C 23.53125 -15.613281 23.539062 -15.519531 23.546875 -15.472656 C 23.527344 -15.570312 23.484375 -15.683594 23.414062 -15.8125 C 23.242188 -16.15625 23.035156 -16.398438 22.800781 -16.546875 C 23.75 -15.953125 25.273438 -15.65625 27.371094 -15.65625 Z M 27.371094 3.371094 C 21.636719 3.371094 16.75 2.109375 12.714844 -0.410156 C 9.988281 -2.117188 7.914062 -4.351562 6.492188 -7.117188 C 5.167969 -9.695312 4.503906 -12.574219 4.503906 -15.753906 C 4.503906 -21.152344 6.433594 -25.863281 10.292969 -29.882812 C 13.394531 -33.121094 17.324219 -35.613281 22.078125 -37.367188 C 26.523438 -39.003906 31.070312 -39.820312 35.722656 -39.820312 C 41.648438 -39.941406 46.691406 -38.960938 50.851562 -36.882812 C 53.605469 -35.503906 55.816406 -33.675781 57.480469 -31.402344 C 59.261719 -28.964844 60.304688 -26.191406 60.605469 -23.082031 L 60.625 -22.871094 L 60.636719 -22.664062 C 60.957031 -16.609375 59.117188 -11.417969 55.117188 -7.09375 C 51.839844 -3.546875 47.585938 -0.894531 42.363281 0.871094 C 37.746094 2.425781 32.816406 3.261719 27.570312 3.371094 Z M 27.371094 3.371094 "/></g></g></g><g fill="#274a78" fill-opacity="1"><g transform="translate(3.823784, 143.57839)"><g><path d="M 41.796875 1.609375 C 35.472656 1.609375 29.617188 0.628906 24.234375 -1.328125 C 18.847656 -3.285156 14.148438 -6.40625 10.140625 -10.6875 C 8.179688 -12.90625 8.40625 -14.816406 10.8125 -16.421875 C 12.769531 -17.929688 14.726562 -17.617188 16.6875 -15.484375 C 23.09375 -9.347656 31.503906 -6.28125 41.921875 -6.28125 C 46.109375 -6.28125 49.957031 -6.898438 53.46875 -8.140625 C 56.988281 -9.390625 59.816406 -11.300781 61.953125 -13.875 C 64.085938 -16.457031 65.15625 -19.664062 65.15625 -23.5 C 65.15625 -26.882812 64.460938 -29.820312 63.078125 -32.3125 C 61.703125 -34.800781 59.007812 -36.976562 55 -38.84375 C 51 -40.71875 45.039062 -42.367188 37.125 -43.796875 C 19.675781 -47.085938 10.953125 -55.71875 10.953125 -69.6875 C 10.953125 -74.769531 12.195312 -79.242188 14.6875 -83.109375 C 17.175781 -86.984375 20.644531 -90.007812 25.09375 -92.1875 C 29.550781 -94.375 34.71875 -95.46875 40.59375 -95.46875 C 45.925781 -95.46875 50.835938 -94.597656 55.328125 -92.859375 C 59.828125 -91.117188 64.035156 -88.691406 67.953125 -85.578125 C 70.179688 -83.535156 70.226562 -81.578125 68.09375 -79.703125 C 66.3125 -77.921875 64.304688 -77.96875 62.078125 -79.84375 C 58.785156 -82.332031 55.40625 -84.195312 51.9375 -85.4375 C 48.46875 -86.6875 44.640625 -87.3125 40.453125 -87.3125 C 34.398438 -87.3125 29.394531 -85.820312 25.4375 -82.84375 C 21.476562 -79.863281 19.5 -75.570312 19.5 -69.96875 C 19.5 -65.070312 21.078125 -61.109375 24.234375 -58.078125 C 27.390625 -55.054688 33.109375 -52.785156 41.390625 -51.265625 C 52.867188 -49.222656 61.097656 -46.019531 66.078125 -41.65625 C 71.066406 -37.289062 73.5625 -31.28125 73.5625 -23.625 C 73.5625 -18.375 72.160156 -13.859375 69.359375 -10.078125 C 66.554688 -6.296875 62.75 -3.398438 57.9375 -1.390625 C 53.132812 0.609375 47.753906 1.609375 41.796875 1.609375 Z M 41.796875 1.609375 "/></g></g></g><g fill="#274a78" fill-opacity="1"><g transform="translate(84.997699, 143.57839)"><g><path d="M 13.078125 28.84375 C 12.191406 28.84375 11.328125 28.796875 10.484375 28.703125 C 9.640625 28.617188 8.769531 28.488281 7.875 28.3125 C 5.207031 28.039062 3.875 26.570312 3.875 23.90625 C 3.875 21.582031 5.03125 20.554688 7.34375 20.828125 C 9.125 21.097656 10.859375 21.234375 12.546875 21.234375 C 15.835938 21.234375 18.285156 20.5 19.890625 19.03125 C 21.492188 17.5625 23.007812 15 24.4375 11.34375 L 28.703125 0 L 5.609375 -58.875 C 4.984375 -60.394531 4.894531 -61.617188 5.34375 -62.546875 C 5.789062 -63.484375 6.632812 -63.953125 7.875 -63.953125 L 8.28125 -63.953125 C 10.6875 -63.953125 12.375 -62.796875 13.34375 -60.484375 L 32.4375 -10.140625 L 50.875 -60.34375 C 51.675781 -62.75 53.320312 -63.953125 55.8125 -63.953125 C 57.238281 -63.953125 58.21875 -63.484375 58.75 -62.546875 C 59.28125 -61.617188 59.28125 -60.394531 58.75 -58.875 L 31.640625 13.890625 C 29.773438 19.046875 27.414062 22.828125 24.5625 25.234375 C 21.71875 27.640625 17.890625 28.84375 13.078125 28.84375 Z M 13.078125 28.84375 "/></g></g></g><g fill="#274a78" fill-opacity="1"><g transform="translate(149.349383, 143.57839)"><g><path d="M 14.015625 0 C 11.253906 0 9.875 -1.46875 9.875 -4.40625 L 9.875 -59.546875 C 9.875 -62.484375 11.164062 -63.953125 13.75 -63.953125 C 16.332031 -63.953125 17.625 -62.972656 17.625 -61.015625 L 17.75 -54.875 C 19.800781 -57.90625 22.539062 -60.441406 25.96875 -62.484375 C 29.394531 -64.535156 33.289062 -65.5625 37.65625 -65.5625 C 44.507812 -65.5625 50.023438 -63.378906 54.203125 -59.015625 C 58.390625 -54.648438 60.484375 -48.421875 60.484375 -40.328125 L 60.484375 -4.40625 C 60.484375 -1.46875 59.148438 0 56.484375 0 C 53.804688 0 52.46875 -1.46875 52.46875 -4.40625 L 52.46875 -39.125 C 52.46875 -45.351562 50.976562 -50.023438 48 -53.140625 C 45.019531 -56.253906 41.171875 -57.8125 36.453125 -57.8125 C 32.890625 -57.8125 29.707031 -57.03125 26.90625 -55.46875 C 24.101562 -53.914062 21.921875 -51.828125 20.359375 -49.203125 C 18.804688 -46.578125 18.03125 -43.660156 18.03125 -40.453125 L 18.03125 -4.40625 C 18.03125 -1.46875 16.691406 0 14.015625 0 Z M 14.015625 0 "/></g></g></g><g fill="#274a78" fill-opacity="1"><g transform="translate(219.842518, 143.57839)"><g><path d="M 35.921875 1.46875 C 30.222656 1.46875 25.144531 0.0664062 20.6875 -2.734375 C 16.238281 -5.535156 12.722656 -9.472656 10.140625 -14.546875 C 7.566406 -19.617188 6.28125 -25.453125 6.28125 -32.046875 C 6.28125 -38.628906 7.566406 -44.4375 10.140625 -49.46875 C 12.722656 -54.5 16.238281 -58.414062 20.6875 -61.21875 C 25.144531 -64.019531 30.222656 -65.421875 35.921875 -65.421875 C 43.566406 -65.421875 50.019531 -62.929688 55.28125 -57.953125 C 56.4375 -57.054688 56.96875 -56.070312 56.875 -55 C 56.789062 -53.9375 56.257812 -53.003906 55.28125 -52.203125 C 54.207031 -51.492188 53.25 -51.179688 52.40625 -51.265625 C 51.5625 -51.359375 50.5625 -51.847656 49.40625 -52.734375 C 45.570312 -56.117188 41.078125 -57.8125 35.921875 -57.8125 C 29.679688 -57.8125 24.535156 -55.472656 20.484375 -50.796875 C 16.441406 -46.128906 14.421875 -39.878906 14.421875 -32.046875 C 14.421875 -24.210938 16.441406 -17.9375 20.484375 -13.21875 C 24.535156 -8.5 29.679688 -6.140625 35.921875 -6.140625 C 41.171875 -6.140625 45.617188 -7.832031 49.265625 -11.21875 C 50.335938 -12.101562 51.335938 -12.613281 52.265625 -12.75 C 53.203125 -12.882812 54.207031 -12.597656 55.28125 -11.890625 C 56.257812 -11.085938 56.789062 -10.171875 56.875 -9.140625 C 56.96875 -8.117188 56.476562 -7.117188 55.40625 -6.140625 C 50.0625 -1.066406 43.566406 1.46875 35.921875 1.46875 Z M 35.921875 1.46875 "/></g></g></g><g fill="#274a78" fill-opacity="1"><g transform="translate(284.594728, 143.57839)"><g><path d="M 26.96875 1.203125 C 20.738281 1.285156 15.6875 -0.140625 11.8125 -3.078125 C 7.945312 -6.015625 6.015625 -10.285156 6.015625 -15.890625 C 6.015625 -20.160156 7.457031 -23.894531 10.34375 -27.09375 C 13.238281 -30.300781 16.929688 -32.816406 21.421875 -34.640625 C 25.921875 -36.472656 30.570312 -37.390625 35.375 -37.390625 C 41.96875 -37.390625 47.175781 -35.832031 51 -32.71875 L 51 -43.65625 C 51 -49.625 49.753906 -53.519531 47.265625 -55.34375 C 44.773438 -57.164062 40.769531 -58.078125 35.25 -58.078125 C 32.3125 -58.078125 29.082031 -57.628906 25.5625 -56.734375 C 22.050781 -55.847656 18.867188 -54.691406 16.015625 -53.265625 C 13.347656 -52.203125 11.4375 -52.601562 10.28125 -54.46875 C 8.945312 -56.789062 9.660156 -58.570312 12.421875 -59.8125 C 15.710938 -61.507812 19.425781 -62.890625 23.5625 -63.953125 C 27.707031 -65.023438 31.601562 -65.5625 35.25 -65.5625 C 43.34375 -65.5625 49.300781 -64 53.125 -60.875 C 56.957031 -57.757812 58.875 -52.019531 58.875 -43.65625 L 58.875 -8.28125 C 58.875 -7.125 59.097656 -6.410156 59.546875 -6.140625 C 59.992188 -5.867188 60.929688 -5.734375 62.359375 -5.734375 C 63.515625 -5.734375 64.488281 -5.535156 65.28125 -5.140625 C 66.082031 -4.742188 66.484375 -4.097656 66.484375 -3.203125 C 66.484375 -0.972656 65.375 0.316406 63.15625 0.671875 C 62.4375 0.847656 61.675781 0.976562 60.875 1.0625 C 60.082031 1.15625 59.328125 1.203125 58.609375 1.203125 C 55.585938 1.203125 53.628906 0.582031 52.734375 -0.65625 C 51.847656 -1.90625 51.316406 -4.269531 51.140625 -7.75 C 48.378906 -4.71875 44.726562 -2.488281 40.1875 -1.0625 C 35.644531 0.351562 31.238281 1.109375 26.96875 1.203125 Z M 27.375 -6.140625 C 31.644531 -6.234375 35.625 -6.898438 39.3125 -8.140625 C 43.007812 -9.390625 45.945312 -11.191406 48.125 -13.546875 C 50.3125 -15.910156 51.316406 -18.78125 51.140625 -22.15625 C 50.867188 -24.914062 49.351562 -26.984375 46.59375 -28.359375 C 43.832031 -29.742188 40.273438 -30.394531 35.921875 -30.3125 C 32.265625 -30.3125 28.742188 -29.6875 25.359375 -28.4375 C 21.984375 -27.1875 19.25 -25.472656 17.15625 -23.296875 C 15.0625 -21.117188 14.015625 -18.601562 14.015625 -15.75 C 14.015625 -12.457031 15.257812 -10.03125 17.75 -8.46875 C 20.25 -6.914062 23.457031 -6.140625 27.375 -6.140625 Z M 27.375 -6.140625 "/></g></g></g></g></g></svg>