<svg xmlns="http://www.w3.org/2000/svg" xmlns:xlink="http://www.w3.org/1999/xlink" width="1920" zoomAndPan="magnify" viewBox="0 0 1440 809.999993" height="1080" preserveAspectRatio="xMidYMid meet" version="1.0"><defs><g/><clipPath id="3f1d0a065d"><path d="M 88.90625 65.789062 L 1351.15625 65.789062 L 1351.15625 744.539062 L 88.90625 744.539062 Z M 88.90625 65.789062 " clip-rule="nonzero"/></clipPath><clipPath id="7f203b4a64"><rect x="0" width="1299" y="0" height="657"/></clipPath></defs><path fill="#ffffff" d="M 1161.515625 287.265625 C 1161.730469 283.765625 1162.210938 280.296875 1162.210938 276.730469 C 1162.210938 162.695312 1041.242188 70.242188 892.050781 70.242188 C 805.472656 70.242188 728.613281 101.515625 679.160156 149.890625 C 638.78125 131.523438 591.78125 120.808594 541.382812 120.808594 C 409.8125 120.808594 300.339844 192.738281 276.269531 287.894531 C 169.847656 315.601562 93.203125 392.460938 93.203125 483.15625 C 93.203125 597.222656 214.15625 689.644531 363.347656 689.644531 C 420.8125 689.644531 473.980469 675.824219 517.761719 652.464844 C 566.648438 705.46875 647.226562 740.191406 738.550781 740.191406 C 822.757812 740.191406 897.957031 710.730469 947.476562 664.527344 C 985.847656 680.550781 1029.84375 689.644531 1076.609375 689.644531 C 1225.832031 689.644531 1346.785156 597.222656 1346.785156 483.15625 C 1346.785156 391.878906 1269.097656 314.472656 1161.515625 287.265625 " fill-opacity="1" fill-rule="nonzero"/><g clip-path="url(#3f1d0a065d)"><path fill="#274a78" d="M 1161.515625 287.265625 L 1165.761719 287.53125 C 1165.960938 284.230469 1166.457031 280.664062 1166.457031 276.730469 C 1166.457031 218.15625 1135.351562 165.300781 1085.652344 127.34375 C 1035.933594 89.355469 967.535156 65.996094 892.050781 65.996094 C 804.441406 65.996094 726.554688 97.597656 676.191406 146.851562 L 679.160156 149.890625 L 680.917969 146.023438 C 639.976562 127.410156 592.378906 116.558594 541.382812 116.558594 C 474.828125 116.558594 413.792969 134.742188 366.234375 165.085938 C 318.6875 195.425781 284.511719 238.011719 272.152344 286.851562 L 276.269531 287.894531 L 275.207031 283.78125 C 221.308594 297.816406 174.855469 324.308594 141.761719 358.980469 C 108.664062 393.621094 88.941406 436.585938 88.957031 483.15625 C 88.941406 541.75 120.042969 594.585938 169.746094 632.542969 C 219.464844 670.53125 287.878906 693.875 363.347656 693.890625 C 421.492188 693.890625 475.324219 679.921875 519.75 656.214844 L 517.761719 652.464844 L 514.625 655.335938 C 564.511719 709.351562 646.148438 744.40625 738.550781 744.421875 C 823.738281 744.421875 899.933594 714.675781 950.378906 667.644531 L 947.476562 664.527344 L 945.851562 668.457031 C 984.753906 684.699219 1029.28125 693.890625 1076.609375 693.890625 C 1152.109375 693.875 1220.507812 670.53125 1270.242188 632.542969 C 1319.945312 594.585938 1351.050781 541.75 1351.03125 483.15625 C 1351.050781 436.289062 1331.058594 393.039062 1297.546875 358.253906 C 1264.039062 323.429688 1217.039062 296.9375 1162.558594 283.152344 L 1161.515625 287.265625 L 1165.761719 287.53125 L 1161.515625 287.265625 L 1160.484375 291.398438 C 1213.574219 304.816406 1259.195312 330.632812 1291.425781 364.140625 C 1323.675781 397.667969 1342.539062 438.761719 1342.539062 483.15625 C 1342.539062 538.628906 1313.160156 589.027344 1265.082031 625.789062 C 1217.023438 662.535156 1150.351562 685.398438 1076.609375 685.398438 C 1030.390625 685.398438 986.960938 676.40625 949.121094 660.613281 L 946.582031 659.566406 L 944.589844 661.425781 C 895.96875 706.78125 821.761719 735.945312 738.550781 735.945312 C 648.285156 735.945312 568.804688 701.570312 520.878906 649.578125 L 518.640625 647.175781 L 515.753906 648.71875 C 472.621094 671.742188 420.132812 685.398438 363.347656 685.398438 C 289.640625 685.398438 222.964844 662.535156 174.90625 625.789062 C 126.828125 589.027344 97.449219 538.628906 97.433594 483.15625 C 97.449219 439.027344 116.046875 398.214844 147.898438 364.839844 C 179.734375 331.476562 224.824219 305.679688 277.347656 292.011719 L 279.769531 291.378906 L 280.398438 288.941406 C 292.09375 242.625 324.710938 201.664062 370.792969 172.25 C 416.878906 142.839844 476.371094 125.054688 541.382812 125.054688 C 591.1875 125.054688 637.585938 135.65625 677.402344 153.753906 L 680.039062 154.964844 L 682.128906 152.925781 C 730.636719 105.429688 806.484375 74.472656 892.050781 74.472656 C 965.777344 74.472656 1032.449219 97.351562 1080.492188 134.09375 C 1128.585938 170.875 1157.964844 221.273438 1157.964844 276.730469 C 1157.964844 279.917969 1157.515625 283.300781 1157.285156 287.015625 L 1157.070312 290.519531 L 1160.484375 291.398438 L 1161.515625 287.265625 " fill-opacity="1" fill-rule="nonzero"/></g><g transform="matrix(1, 0, 0, 1, 76, 39)"><g clip-path="url(#7f203b4a64)"><g fill="#ffffff" fill-opacity="1"><g transform="translate(9.92978, 514.572059)"><g><path d="M 150.457031 40.019531 C 123.683594 40.019531 98.710938 35.808594 75.542969 27.382812 C 51.027344 18.46875 29.695312 4.332031 11.546875 -15.03125 L 11.175781 -15.421875 L 10.820312 -15.828125 C 0.582031 -27.460938 -3.75 -40.050781 -2.175781 -53.585938 C -1.265625 -61.414062 1.617188 -68.578125 6.476562 -75.085938 C 10.011719 -79.820312 14.5 -84 19.9375 -87.625 L 38.9375 -59.125 L 17.992188 -86.226562 C 23.046875 -90.132812 28.441406 -92.964844 34.175781 -94.722656 C 41 -96.816406 47.902344 -97.308594 54.894531 -96.195312 C 66.28125 -94.382812 76.429688 -88.621094 85.335938 -78.90625 L 60.085938 -55.761719 L 83.785156 -80.488281 C 100.234375 -64.726562 122.617188 -56.84375 150.9375 -56.84375 C 162.074219 -56.84375 172.121094 -58.429688 181.078125 -61.605469 C 187.792969 -63.984375 192.984375 -67.394531 196.65625 -71.828125 C 199.105469 -74.789062 200.328125 -79.046875 200.328125 -84.601562 C 200.328125 -90.882812 199.273438 -95.925781 197.164062 -99.738281 C 196.832031 -100.339844 195.96875 -101.203125 194.574219 -102.332031 C 191.90625 -104.492188 188.234375 -106.664062 183.5625 -108.84375 C 171.832031 -114.316406 153.171875 -119.355469 127.574219 -123.957031 C 89.109375 -131.21875 59.542969 -145.074219 38.875 -165.53125 C 16.402344 -187.777344 5.164062 -216.238281 5.164062 -250.921875 C 5.164062 -275.902344 11.46875 -298.1875 24.074219 -317.769531 C 36.492188 -337.058594 53.566406 -352.027344 75.300781 -362.675781 C 96.078125 -372.859375 119.6875 -377.949219 146.132812 -377.949219 C 169.613281 -377.949219 191.433594 -374.058594 211.585938 -366.277344 C 231.027344 -358.769531 249.164062 -348.320312 265.996094 -334.929688 L 266.957031 -334.164062 L 267.863281 -333.332031 C 279.015625 -323.070312 284.746094 -311.324219 285.046875 -298.089844 C 285.222656 -290.21875 283.378906 -282.742188 279.507812 -275.65625 C 276.617188 -270.375 272.6875 -265.554688 267.710938 -261.199219 L 245.15625 -286.976562 L 269.375 -262.757812 C 259.269531 -252.652344 247.539062 -247.75 234.179688 -248.046875 C 222.542969 -248.304688 211.648438 -252.699219 201.492188 -261.230469 L 223.523438 -287.457031 L 202.855469 -260.144531 C 193.777344 -267.011719 184.632812 -272.101562 175.417969 -275.410156 C 166.660156 -278.550781 156.738281 -280.125 145.652344 -280.125 C 131.492188 -280.125 120.332031 -277.050781 112.171875 -270.90625 C 109.636719 -269 107.789062 -266.789062 106.632812 -264.28125 C 105.167969 -261.101562 104.433594 -256.96875 104.433594 -251.882812 C 104.433594 -244.007812 106.601562 -237.992188 110.9375 -233.839844 C 113.402344 -231.476562 117.707031 -229.078125 123.855469 -226.636719 C 132.054688 -223.382812 142.492188 -220.597656 155.175781 -218.28125 C 202.667969 -209.8125 237.773438 -195.636719 260.5 -175.753906 C 273.484375 -164.390625 283.242188 -150.839844 289.769531 -135.101562 C 296 -120.082031 299.113281 -103.410156 299.113281 -85.082031 C 299.113281 -58.636719 291.824219 -35.574219 277.238281 -15.898438 C 263.394531 2.78125 244.914062 16.9375 221.796875 26.570312 C 200.273438 35.535156 176.496094 40.019531 150.457031 40.019531 Z M 150.457031 -28.484375 C 167.363281 -28.484375 182.359375 -31.210938 195.449219 -36.664062 C 206.941406 -41.453125 215.859375 -48.125 222.203125 -56.6875 C 227.808594 -64.25 230.613281 -73.714844 230.613281 -85.082031 C 230.613281 -94.316406 229.242188 -102.238281 226.496094 -108.851562 C 224.050781 -114.742188 220.351562 -119.859375 215.390625 -124.199219 C 202.222656 -135.722656 178.042969 -144.621094 142.855469 -150.894531 C 106.3125 -157.574219 79.878906 -168.730469 63.554688 -184.367188 C 45.140625 -202.003906 35.929688 -224.511719 35.929688 -251.882812 C 35.929688 -266.992188 38.761719 -280.683594 44.425781 -292.964844 C 50.398438 -305.917969 59.25 -316.808594 70.972656 -325.636719 C 91.332031 -340.960938 116.226562 -348.625 145.652344 -348.625 C 164.6875 -348.625 182.324219 -345.710938 198.5625 -339.882812 C 214.34375 -334.21875 229.554688 -325.847656 244.191406 -314.769531 L 244.886719 -314.242188 L 245.554688 -313.683594 C 245.148438 -314.023438 244.46875 -314.410156 243.503906 -314.84375 C 241.160156 -315.90625 238.558594 -316.46875 235.699219 -316.53125 C 232.25 -316.609375 228.988281 -315.941406 225.914062 -314.53125 C 223.890625 -313.601562 222.230469 -312.492188 220.9375 -311.195312 L 221.742188 -312 L 222.601562 -312.753906 C 221.46875 -311.761719 220.402344 -310.347656 219.394531 -308.507812 C 217.40625 -304.871094 216.460938 -300.878906 216.5625 -296.53125 C 216.652344 -292.554688 217.601562 -288.964844 219.410156 -285.773438 C 220.15625 -284.453125 220.847656 -283.503906 221.484375 -282.917969 L 244.675781 -308.125 L 223.351562 -281.320312 C 211.984375 -290.363281 199.835938 -297.378906 186.910156 -302.371094 C 174.695312 -307.089844 161.105469 -309.445312 146.132812 -309.445312 C 130.273438 -309.445312 116.710938 -306.683594 105.441406 -301.164062 C 95.128906 -296.109375 87.207031 -289.289062 81.675781 -280.695312 C 76.335938 -272.398438 73.667969 -262.476562 73.667969 -250.921875 C 73.667969 -235.292969 78.132812 -223.058594 87.066406 -214.21875 C 97.804688 -203.589844 115.347656 -195.976562 139.695312 -191.378906 C 171.140625 -185.726562 195.417969 -178.90625 212.53125 -170.921875 C 233.679688 -161.050781 248.53125 -148.382812 257.09375 -132.917969 C 264.917969 -118.785156 268.832031 -102.679688 268.832031 -84.601562 C 268.832031 -62.597656 262.363281 -43.785156 249.429688 -28.15625 C 237.71875 -14.003906 222.5625 -3.632812 203.960938 2.960938 C 187.601562 8.757812 169.925781 11.660156 150.9375 11.660156 C 104.269531 11.660156 66.085938 -2.570312 36.386719 -31.03125 L 35.585938 -31.800781 L 34.839844 -32.617188 C 35.171875 -32.25 35.777344 -31.796875 36.644531 -31.253906 C 38.816406 -29.894531 41.3125 -28.992188 44.128906 -28.542969 C 47.59375 -27.992188 50.972656 -28.222656 54.269531 -29.234375 C 56.484375 -29.914062 58.351562 -30.84375 59.878906 -32.023438 L 58.933594 -31.292969 L 57.933594 -30.625 C 59.046875 -31.367188 60.1875 -32.523438 61.363281 -34.09375 C 63.855469 -37.433594 65.359375 -41.296875 65.867188 -45.675781 C 66.359375 -49.898438 65.835938 -53.839844 64.304688 -57.5 C 63.640625 -59.085938 62.953125 -60.277344 62.246094 -61.082031 L 36.53125 -38.457031 L 61.519531 -61.882812 C 72.210938 -50.476562 84.6875 -42.183594 98.953125 -36.996094 C 114.558594 -31.320312 131.726562 -28.484375 150.457031 -28.484375 Z M 150.457031 -28.484375 "/></g></g></g><g fill="#ffffff" fill-opacity="1"><g transform="translate(302.178322, 514.572059)"><g><path d="M 47.109375 138.082031 C 42.703125 138.082031 38.386719 137.859375 34.148438 137.414062 C 30.054688 136.980469 25.886719 136.339844 21.644531 135.492188 L 28.359375 101.90625 L 24.953125 135.988281 C 11.421875 134.636719 0.503906 129.394531 -7.796875 120.261719 C -16.140625 111.085938 -20.3125 99.679688 -20.3125 86.042969 C -20.3125 80.117188 -19.421875 74.582031 -17.640625 69.449219 C -15.160156 62.289062 -11.15625 56.265625 -5.628906 51.378906 C 4.082031 42.785156 16.082031 39.316406 30.363281 40.964844 L 30.941406 41.03125 L 31.519531 41.117188 C 36.246094 41.824219 40.800781 42.179688 45.183594 42.179688 C 47.761719 42.179688 49.648438 42 50.847656 41.640625 C 50.242188 41.824219 49.453125 42.359375 48.480469 43.25 C 48.863281 42.898438 49.554688 41.878906 50.554688 40.191406 C 52.335938 37.179688 54.167969 33.25 56.058594 28.40625 L 71.292969 -12.066406 L 103.347656 0 L 71.464844 12.507812 L -11.695312 -199.476562 C -17.652344 -213.9375 -17.652344 -227.421875 -11.695312 -239.933594 C -7.742188 -248.234375 -1.792969 -254.582031 6.144531 -258.96875 C 12.824219 -262.660156 20.226562 -264.503906 28.359375 -264.503906 L 29.804688 -264.503906 C 41.195312 -264.503906 51.324219 -261.46875 60.199219 -255.398438 C 68.769531 -249.53125 75.242188 -241.433594 79.613281 -231.101562 L 79.867188 -230.507812 L 148.832031 -48.679688 L 116.808594 -36.53125 L 84.65625 -48.335938 L 150.992188 -229.074219 L 183.144531 -217.273438 L 150.652344 -228.105469 C 154.402344 -239.355469 160.707031 -248.210938 169.566406 -254.675781 C 178.542969 -261.226562 189 -264.503906 200.929688 -264.503906 C 208.664062 -264.503906 215.746094 -262.96875 222.171875 -259.902344 C 230.382812 -255.984375 236.738281 -250.082031 241.246094 -242.199219 C 245.214844 -235.25 247.199219 -227.644531 247.199219 -219.378906 C 247.199219 -213.261719 246.066406 -207 243.804688 -200.585938 L 146.023438 61.949219 C 137.285156 86.078125 125.457031 104.441406 110.535156 117.03125 C 93.902344 131.0625 72.757812 138.082031 47.109375 138.082031 Z M 47.109375 69.578125 C 56.066406 69.578125 62.484375 67.945312 66.359375 64.671875 C 71.949219 59.957031 77.105469 51.078125 81.828125 38.035156 L 179.207031 -223.386719 C 178.867188 -222.421875 178.695312 -221.085938 178.695312 -219.378906 C 178.695312 -215.515625 179.71875 -211.796875 181.769531 -208.210938 C 184.351562 -203.691406 187.984375 -200.316406 192.667969 -198.082031 C 195.570312 -196.695312 198.324219 -196.003906 200.929688 -196.003906 C 203.890625 -196.003906 206.894531 -197.113281 209.945312 -199.339844 C 212.875 -201.480469 214.773438 -203.847656 215.636719 -206.441406 L 215.476562 -205.957031 L 117.335938 61.4375 L 16.042969 -205.609375 L 48.070312 -217.753906 L 16.523438 -204.410156 C 17.371094 -202.410156 19.035156 -200.558594 21.519531 -198.859375 C 24.304688 -196.953125 27.066406 -196.003906 29.804688 -196.003906 L 28.359375 -196.003906 C 32.007812 -196.003906 35.648438 -197.003906 39.28125 -199.011719 C 44.175781 -201.71875 47.800781 -205.542969 50.152344 -210.480469 C 51.945312 -214.25 52.707031 -218.042969 52.425781 -221.863281 C 52.320312 -223.3125 52.203125 -224.1875 52.074219 -224.496094 L 140.042969 -0.253906 L 119.875 53.3125 C 112.816406 71.394531 104.449219 84.875 94.769531 93.746094 C 82.453125 105.035156 65.925781 110.683594 45.183594 110.683594 C 37.394531 110.683594 29.449219 110.074219 21.359375 108.859375 L 26.4375 74.988281 L 22.511719 109.015625 C 24.199219 109.207031 26.117188 109.070312 28.265625 108.605469 C 32.511719 107.679688 36.34375 105.707031 39.757812 102.683594 C 43.203125 99.640625 45.644531 96.039062 47.082031 91.886719 C 47.820312 89.753906 48.191406 87.808594 48.191406 86.042969 C 48.191406 84.855469 47.941406 83.484375 47.4375 81.929688 C 46.523438 79.09375 45.007812 76.511719 42.890625 74.179688 C 40.785156 71.867188 38.378906 70.121094 35.671875 68.949219 C 34.207031 68.3125 32.90625 67.941406 31.769531 67.828125 L 33.4375 67.992188 L 35.078125 68.320312 C 37.246094 68.753906 39.328125 69.078125 41.320312 69.285156 C 43.171875 69.480469 45.101562 69.578125 47.109375 69.578125 Z M 47.109375 69.578125 "/></g></g></g><g fill="#ffffff" fill-opacity="1"><g transform="translate(533.862179, 514.572059)"><g><path d="M 50.472656 34.25 C 35.628906 34.25 23.582031 29.328125 14.332031 19.484375 C 5.65625 10.25 1.320312 -1.53125 1.320312 -15.863281 L 1.320312 -214.390625 C 1.320312 -228.285156 5.324219 -239.789062 13.328125 -248.898438 C 18.238281 -254.484375 24.214844 -258.613281 31.265625 -261.285156 C 36.921875 -263.433594 43.003906 -264.503906 49.511719 -264.503906 C 61.839844 -264.503906 72.226562 -261.300781 80.667969 -254.898438 C 86.550781 -250.433594 90.972656 -244.828125 93.9375 -238.082031 C 96.449219 -232.371094 97.703125 -226.234375 97.703125 -219.679688 L 98.175781 -198.308594 L 63.933594 -197.566406 L 35.5625 -216.757812 C 45.777344 -231.859375 59.234375 -244.394531 75.929688 -254.371094 C 93.675781 -264.972656 113.550781 -270.273438 135.554688 -270.273438 C 169.96875 -270.273438 198.078125 -258.90625 219.882812 -236.175781 C 241.296875 -213.847656 252.007812 -183.511719 252.007812 -145.171875 L 252.007812 -15.863281 C 252.007812 -1.746094 247.835938 9.898438 239.492188 19.074219 C 234.519531 24.542969 228.5 28.574219 221.433594 31.167969 C 215.824219 33.222656 209.792969 34.25 203.335938 34.25 C 196.875 34.25 190.84375 33.222656 185.234375 31.167969 C 178.167969 28.574219 172.148438 24.542969 167.175781 19.074219 C 158.832031 9.898438 154.664062 -1.746094 154.664062 -15.863281 L 154.664062 -140.84375 C 154.664062 -154.109375 152.464844 -163.039062 148.066406 -167.632812 C 144.074219 -171.804688 138.460938 -173.890625 131.230469 -173.890625 C 124.328125 -173.890625 118.417969 -172.523438 113.492188 -169.789062 C 108.796875 -167.179688 105.222656 -163.804688 102.765625 -159.660156 C 100.351562 -155.59375 99.144531 -150.925781 99.144531 -145.652344 L 99.144531 -15.863281 C 99.144531 -1.746094 94.972656 9.898438 86.632812 19.074219 C 81.660156 24.542969 75.640625 28.574219 68.574219 31.167969 C 62.964844 33.222656 56.929688 34.25 50.472656 34.25 Z M 50.472656 -34.25 C 48.820312 -34.25 46.996094 -33.882812 44.992188 -33.148438 C 41.53125 -31.878906 38.515625 -29.832031 35.945312 -27.003906 C 33.683594 -24.515625 32.105469 -21.800781 31.214844 -18.855469 C 30.832031 -17.601562 30.644531 -16.601562 30.644531 -15.863281 L 30.644531 -145.652344 C 30.644531 -163.449219 35.042969 -179.769531 43.847656 -194.613281 C 52.605469 -209.375 64.734375 -221.0625 80.226562 -229.671875 C 95.492188 -238.152344 112.496094 -242.390625 131.230469 -242.390625 C 157.96875 -242.390625 180.074219 -233.261719 197.554688 -215 C 214.628906 -197.160156 223.164062 -172.441406 223.164062 -140.84375 L 223.164062 -15.863281 C 223.164062 -16.601562 222.972656 -17.601562 222.59375 -18.855469 C 221.703125 -21.800781 220.125 -24.515625 217.863281 -27.003906 C 215.292969 -29.832031 212.277344 -31.878906 208.816406 -33.148438 C 206.8125 -33.882812 204.984375 -34.25 203.335938 -34.25 C 201.683594 -34.25 199.855469 -33.882812 197.851562 -33.148438 C 194.390625 -31.878906 191.375 -29.832031 188.804688 -27.003906 C 186.542969 -24.515625 184.96875 -21.800781 184.074219 -18.855469 C 183.695312 -17.601562 183.503906 -16.601562 183.503906 -15.863281 L 183.503906 -145.171875 C 183.503906 -165.152344 179.152344 -179.679688 170.445312 -188.757812 C 162.125 -197.433594 150.492188 -201.769531 135.554688 -201.769531 C 126.15625 -201.769531 117.988281 -199.699219 111.0625 -195.5625 C 103.082031 -190.792969 96.828125 -185.066406 92.300781 -178.375 L 32.027344 -89.273438 L 29.199219 -219.679688 C 29.199219 -216.644531 29.875 -213.59375 31.222656 -210.527344 C 33.027344 -206.421875 35.707031 -203.023438 39.265625 -200.320312 C 41.804688 -198.394531 44.453125 -197.085938 47.214844 -196.386719 C 48.226562 -196.128906 48.992188 -196.003906 49.511719 -196.003906 C 51.375 -196.003906 53.390625 -196.414062 55.558594 -197.238281 C 59.125 -198.589844 62.199219 -200.734375 64.785156 -203.679688 C 66.960938 -206.15625 68.472656 -208.832031 69.3125 -211.703125 C 69.652344 -212.863281 69.824219 -213.757812 69.824219 -214.390625 L 69.824219 -15.863281 C 69.824219 -16.710938 69.613281 -17.808594 69.1875 -19.15625 C 68.246094 -22.171875 66.601562 -24.921875 64.261719 -27.417969 C 61.710938 -30.128906 58.761719 -32.082031 55.40625 -33.269531 C 53.566406 -33.925781 51.921875 -34.25 50.472656 -34.25 Z M 50.472656 -34.25 "/></g></g></g><g fill="#ffffff" fill-opacity="1"><g transform="translate(787.656955, 514.572059)"><g><path d="M 129.308594 39.539062 C 102.203125 39.539062 77.851562 32.734375 56.25 19.125 C 34.902344 5.675781 18.152344 -12.988281 6.003906 -36.863281 C -5.769531 -60.011719 -11.660156 -86.179688 -11.660156 -115.367188 C -11.660156 -144.597656 -5.75 -170.722656 6.0625 -193.738281 C 18.207031 -217.40625 34.9375 -235.953125 56.25 -249.378906 C 77.851562 -262.988281 102.203125 -269.792969 129.308594 -269.792969 C 165.976562 -269.792969 197.070312 -257.683594 222.585938 -233.464844 L 199.007812 -208.621094 L 219.890625 -235.769531 C 225.792969 -231.230469 230.375 -225.964844 233.644531 -219.976562 C 237.882812 -212.203125 239.636719 -203.945312 238.910156 -195.203125 C 237.785156 -181.710938 231.714844 -170.457031 220.695312 -161.441406 L 219.402344 -160.382812 L 218.007812 -159.453125 C 207.304688 -152.316406 196.328125 -149.339844 185.085938 -150.523438 C 175.625 -151.519531 166.253906 -155.585938 156.972656 -162.726562 L 156.050781 -163.4375 L 155.175781 -164.210938 C 147.875 -170.664062 139.25 -173.890625 129.308594 -173.890625 C 123.035156 -173.890625 117.527344 -172.808594 112.777344 -170.652344 C 108.0625 -168.507812 103.695312 -165.117188 99.671875 -160.472656 C 90.667969 -150.085938 86.167969 -135.050781 86.167969 -115.367188 C 86.167969 -95.625 90.703125 -80.46875 99.773438 -69.898438 C 103.808594 -65.203125 108.179688 -61.773438 112.886719 -59.613281 C 117.605469 -57.445312 123.078125 -56.363281 129.308594 -56.363281 C 139.261719 -56.363281 147.523438 -59.410156 154.09375 -65.5 L 154.757812 -66.113281 L 155.449219 -66.691406 C 164.273438 -74.042969 173.570312 -78.417969 183.347656 -79.8125 C 195.351562 -81.527344 206.902344 -78.683594 218.007812 -71.28125 L 219.402344 -70.351562 L 220.695312 -69.289062 C 231.675781 -60.308594 237.742188 -49.175781 238.898438 -35.894531 C 239.609375 -27.738281 238.128906 -19.914062 234.464844 -12.417969 C 231.6875 -6.730469 227.742188 -1.546875 222.632812 3.136719 C 197.09375 27.40625 165.984375 39.539062 129.308594 39.539062 Z M 129.308594 -28.964844 C 147.75 -28.964844 163.429688 -35.097656 176.34375 -47.359375 C 175.082031 -46.203125 173.941406 -44.582031 172.925781 -42.503906 C 171.023438 -38.613281 170.265625 -34.429688 170.652344 -29.960938 C 170.9375 -26.683594 171.898438 -23.644531 173.535156 -20.851562 C 174.644531 -18.953125 175.90625 -17.429688 177.320312 -16.273438 L 199.007812 -42.78125 L 180.007812 -14.285156 C 181.023438 -13.605469 182.324219 -13.039062 183.914062 -12.582031 C 186.824219 -11.738281 189.863281 -11.546875 193.035156 -12 C 195.125 -12.296875 196.964844 -12.851562 198.554688 -13.664062 C 198.902344 -13.84375 199.195312 -14.011719 199.425781 -14.167969 C 199.453125 -14.1875 199.46875 -14.199219 199.472656 -14.203125 C 199.429688 -14.167969 199.371094 -14.121094 199.304688 -14.066406 L 177.375 -40.378906 L 200.660156 -15.257812 C 180.953125 3.007812 157.167969 12.140625 129.308594 12.140625 C 113.101562 12.140625 98.105469 8.976562 84.316406 2.648438 C 70.519531 -3.683594 58.347656 -12.992188 47.796875 -25.277344 C 27.707031 -48.679688 17.664062 -78.710938 17.664062 -115.367188 C 17.664062 -152.085938 27.742188 -182.074219 47.902344 -205.335938 C 58.460938 -217.519531 70.636719 -226.742188 84.429688 -233.011719 C 98.1875 -239.265625 113.144531 -242.390625 129.308594 -242.390625 C 156.539062 -242.390625 180.28125 -233.441406 200.539062 -215.539062 L 177.859375 -189.875 L 198.742188 -217.023438 L 198.730469 -216.921875 C 196.90625 -217.8125 194.75 -218.386719 192.257812 -218.648438 C 188.945312 -219 185.835938 -218.699219 182.9375 -217.757812 C 181.675781 -217.34375 180.699219 -216.910156 180.007812 -216.449219 L 199.007812 -187.953125 L 177.320312 -214.460938 C 175.8125 -213.226562 174.492188 -211.617188 173.355469 -209.632812 C 171.808594 -206.921875 170.902344 -204.007812 170.644531 -200.890625 C 170.234375 -195.992188 171.1875 -191.421875 173.503906 -187.171875 C 174.851562 -184.707031 176.390625 -182.808594 178.125 -181.472656 L 176.71875 -182.554688 L 175.429688 -183.78125 C 163.128906 -195.453125 147.753906 -201.289062 129.308594 -201.289062 C 115.390625 -201.289062 103.210938 -198 92.765625 -191.417969 C 82.03125 -184.65625 73.445312 -175.003906 67.003906 -162.457031 C 60.230469 -149.261719 56.84375 -133.5625 56.84375 -115.367188 C 56.84375 -97.128906 60.25 -81.3125 67.058594 -67.925781 C 73.5 -55.269531 82.066406 -45.574219 92.765625 -38.832031 C 103.210938 -32.253906 115.390625 -28.964844 129.308594 -28.964844 Z M 129.308594 -28.964844 "/></g></g></g><g fill="#ffffff" fill-opacity="1"><g transform="translate(1020.78282, 514.572059)"><g><path d="M 97.589844 38.574219 C 67.296875 39.007812 42.046875 31.558594 21.839844 16.230469 C 10.261719 7.445312 1.535156 -3.425781 -4.339844 -16.386719 C -9.859375 -28.570312 -12.621094 -42.175781 -12.621094 -57.203125 C -12.621094 -81.367188 -4.46875 -102.476562 11.832031 -120.53125 C 25.753906 -135.957031 43.234375 -147.9375 64.269531 -156.476562 C 84.582031 -164.722656 105.621094 -168.847656 127.382812 -168.847656 C 159.21875 -168.847656 185.171875 -160.675781 205.246094 -144.335938 L 183.625 -117.769531 L 149.375 -117.769531 L 149.375 -157.1875 C 149.375 -164.359375 148.796875 -169.75 147.640625 -173.367188 C 147.503906 -173.785156 147.382812 -174.121094 147.265625 -174.367188 C 147.269531 -174.363281 147.308594 -174.300781 147.386719 -174.183594 C 147.976562 -173.28125 148.824219 -172.421875 149.933594 -171.613281 C 149.257812 -172.105469 147.617188 -172.648438 145.015625 -173.242188 C 140.308594 -174.316406 134.269531 -174.851562 126.902344 -174.851562 C 119.175781 -174.851562 110.359375 -173.597656 100.460938 -171.09375 C 90.199219 -168.492188 81.042969 -165.183594 73 -161.164062 L 71.726562 -160.523438 L 70.402344 -159.996094 C 59.191406 -155.511719 48.488281 -154.335938 38.289062 -156.46875 C 31.683594 -157.851562 25.683594 -160.539062 20.289062 -164.523438 C 15.375 -168.15625 11.242188 -172.679688 7.890625 -178.09375 L 7.609375 -178.546875 L 7.34375 -179.007812 C 3.996094 -184.816406 1.855469 -190.765625 0.929688 -196.859375 C -0.285156 -204.847656 0.582031 -212.527344 3.53125 -219.902344 C 8.230469 -231.648438 17.253906 -240.535156 30.605469 -246.566406 L 44.703125 -215.351562 L 29.058594 -245.820312 C 43.179688 -253.070312 58.921875 -258.9375 76.285156 -263.417969 C 93.992188 -267.988281 110.867188 -270.273438 126.902344 -270.273438 C 164.183594 -270.273438 192.863281 -262.101562 212.9375 -245.761719 C 235.136719 -227.691406 246.238281 -198.167969 246.238281 -157.1875 L 246.238281 -29.804688 C 246.238281 -31.203125 245.917969 -32.929688 245.28125 -34.972656 C 243.085938 -41.988281 238.664062 -47.492188 232.011719 -51.480469 C 228.859375 -53.375 225.84375 -54.527344 222.960938 -54.9375 L 222.90625 -54.957031 C 223.324219 -54.933594 223.847656 -54.921875 224.484375 -54.921875 C 234.042969 -54.921875 242.671875 -52.996094 250.378906 -49.140625 C 257.601562 -45.53125 263.277344 -40.398438 267.40625 -33.746094 C 271.558594 -27.050781 273.636719 -19.648438 273.636719 -11.535156 C 273.636719 0.953125 269.867188 11.570312 262.324219 20.320312 C 254.875 28.964844 245.023438 34.265625 232.78125 36.222656 L 227.367188 2.402344 L 235.675781 35.632812 C 231.621094 36.644531 227.390625 37.398438 222.980469 37.886719 C 218.839844 38.347656 214.855469 38.578125 211.027344 38.578125 C 188.378906 38.578125 172.039062 31.554688 162.003906 17.503906 C 154.917969 7.585938 150.882812 -6.960938 149.898438 -26.125 L 184.105469 -27.878906 L 209.417969 -4.804688 C 195.328125 10.648438 177.167969 21.863281 154.941406 28.835938 C 135.492188 34.9375 116.449219 38.183594 97.8125 38.570312 Z M 96.386719 -29.917969 C 108.515625 -30.171875 121.199219 -32.375 134.4375 -36.527344 C 144.898438 -39.808594 153.015625 -44.617188 158.796875 -50.957031 L 214.109375 -111.621094 L 218.3125 -29.632812 C 218.53125 -25.34375 218.90625 -22.035156 219.433594 -19.699219 C 219.503906 -19.402344 219.566406 -19.15625 219.621094 -18.964844 C 219.628906 -18.9375 219.636719 -18.921875 219.636719 -18.921875 C 219.617188 -18.96875 219.597656 -19.03125 219.566406 -19.105469 C 219.179688 -20.085938 218.574219 -21.15625 217.746094 -22.3125 C 214.933594 -26.25 211.667969 -28.8125 207.949219 -29.996094 C 207.730469 -30.066406 207.558594 -30.113281 207.429688 -30.140625 C 207.507812 -30.125 207.636719 -30.105469 207.824219 -30.082031 C 208.65625 -29.976562 209.722656 -29.925781 211.027344 -29.925781 C 212.324219 -29.925781 213.789062 -30.015625 215.414062 -30.195312 C 216.773438 -30.347656 217.988281 -30.554688 219.0625 -30.824219 L 220.496094 -31.183594 L 221.957031 -31.417969 C 220.558594 -31.195312 219.0625 -30.6875 217.472656 -29.90625 C 214.8125 -28.59375 212.46875 -26.761719 210.441406 -24.40625 C 208.378906 -22.019531 206.894531 -19.378906 205.980469 -16.492188 C 205.417969 -14.710938 205.136719 -13.0625 205.136719 -11.535156 C 205.136719 -6.628906 206.492188 -1.988281 209.203125 2.378906 C 211.890625 6.710938 215.402344 9.960938 219.742188 12.128906 C 221.679688 13.097656 223.261719 13.582031 224.484375 13.582031 C 213.03125 13.582031 203.792969 11.472656 196.769531 7.257812 C 188.511719 2.304688 182.890625 -4.960938 179.894531 -14.539062 C 178.457031 -19.148438 177.734375 -24.234375 177.734375 -29.804688 L 177.734375 -157.1875 C 177.734375 -168.542969 176.597656 -177.632812 174.324219 -184.453125 C 172.980469 -188.488281 171.4375 -191.214844 169.695312 -192.632812 C 166.652344 -195.109375 162.160156 -197.125 156.222656 -198.675781 C 148.324219 -200.738281 138.550781 -201.769531 126.902344 -201.769531 C 116.664062 -201.769531 105.496094 -200.210938 93.402344 -197.089844 C 80.960938 -193.878906 69.945312 -189.808594 60.351562 -184.882812 L 59.585938 -184.488281 L 58.800781 -184.136719 C 59.386719 -184.402344 60.167969 -184.957031 61.144531 -185.808594 C 63.730469 -188.066406 65.726562 -190.949219 67.132812 -194.460938 C 68.800781 -198.628906 69.304688 -202.863281 68.652344 -207.164062 C 68.285156 -209.574219 67.628906 -211.597656 66.679688 -213.238281 L 37.011719 -196.125 L 66.136719 -214.152344 C 64.867188 -216.203125 63.15625 -218.023438 61.007812 -219.613281 C 58.378906 -221.554688 55.484375 -222.859375 52.324219 -223.519531 C 50.082031 -223.988281 47.992188 -224.082031 46.046875 -223.796875 C 45.601562 -223.734375 45.214844 -223.65625 44.894531 -223.5625 L 44.964844 -223.597656 L 57.683594 -191.796875 L 42.367188 -222.433594 C 54.832031 -228.664062 68.59375 -233.6875 83.648438 -237.5 C 99.0625 -241.402344 113.484375 -243.355469 126.902344 -243.355469 C 154.238281 -243.355469 175.402344 -237.863281 190.398438 -226.882812 C 208.71875 -213.472656 217.875 -190.242188 217.875 -157.1875 L 217.875 -45.730469 L 162.003906 -91.207031 C 154.519531 -97.296875 142.980469 -100.34375 127.382812 -100.34375 C 114.539062 -100.34375 102.085938 -97.898438 90.035156 -93.003906 C 78.703125 -88.40625 69.582031 -82.28125 62.675781 -74.628906 C 58.148438 -69.613281 55.882812 -63.800781 55.882812 -57.203125 C 55.882812 -52.039062 56.605469 -47.859375 58.058594 -44.660156 C 59.152344 -42.238281 60.882812 -40.132812 63.242188 -38.34375 C 70.917969 -32.519531 82.042969 -29.714844 96.609375 -29.921875 Z M 97.828125 -56.355469 C 109.707031 -56.601562 120.636719 -58.410156 130.617188 -61.777344 C 138.398438 -64.402344 144.242188 -67.824219 148.140625 -72.042969 C 149.449219 -73.457031 150.035156 -75.441406 149.902344 -77.996094 L 184.105469 -79.796875 L 150.015625 -76.496094 C 150.136719 -75.234375 150.683594 -73.941406 151.652344 -72.617188 C 152.054688 -72.070312 152.453125 -71.632812 152.859375 -71.304688 L 152.9375 -71.242188 C 152.8125 -71.320312 152.648438 -71.410156 152.445312 -71.511719 C 147.550781 -73.957031 140.074219 -75.078125 130.007812 -74.875 C 120.472656 -74.867188 111.527344 -73.328125 103.171875 -70.25 C 95.9375 -67.582031 90.375 -64.222656 86.488281 -60.171875 C 85.3125 -58.945312 84.722656 -57.796875 84.722656 -56.722656 C 84.722656 -56.214844 84.742188 -55.878906 84.78125 -55.707031 C 84.707031 -56.050781 84.546875 -56.460938 84.304688 -56.933594 C 83.671875 -58.160156 82.933594 -59.039062 82.085938 -59.570312 C 85.503906 -57.433594 90.992188 -56.363281 98.542969 -56.363281 Z M 98.542969 12.140625 C 77.894531 12.140625 60.304688 7.601562 45.78125 -1.480469 C 35.960938 -7.617188 28.488281 -15.667969 23.371094 -25.628906 C 18.605469 -34.90625 16.222656 -45.269531 16.222656 -56.722656 C 16.222656 -76.15625 23.164062 -93.113281 37.050781 -107.589844 C 48.226562 -119.242188 62.375 -128.222656 79.492188 -134.527344 C 95.492188 -140.421875 111.863281 -143.367188 128.609375 -143.363281 C 149.945312 -143.796875 168.105469 -140.269531 183.082031 -132.78125 C 193 -127.824219 200.957031 -121.246094 206.949219 -113.050781 C 213.363281 -104.273438 217.113281 -94.289062 218.199219 -83.09375 L 218.269531 -82.347656 L 218.308594 -81.59375 C 219.457031 -59.792969 212.835938 -41.109375 198.441406 -25.539062 C 186.636719 -12.773438 171.328125 -3.214844 152.511719 3.132812 C 135.894531 8.738281 118.140625 11.738281 99.257812 12.132812 Z M 98.542969 12.140625 "/></g></g></g><g fill="#274a78" fill-opacity="1"><g transform="translate(9.92978, 514.572059)"><g><path d="M 150.453125 5.765625 C 127.703125 5.765625 106.632812 2.242188 87.25 -4.796875 C 67.863281 -11.847656 50.957031 -23.066406 36.53125 -38.453125 C 29.476562 -46.460938 30.28125 -53.351562 38.9375 -59.125 C 45.988281 -64.570312 53.039062 -63.453125 60.09375 -55.765625 C 83.164062 -33.648438 113.445312 -22.59375 150.9375 -22.59375 C 166 -22.59375 179.859375 -24.832031 192.515625 -29.3125 C 205.179688 -33.800781 215.359375 -40.691406 223.046875 -49.984375 C 230.734375 -59.285156 234.578125 -70.828125 234.578125 -84.609375 C 234.578125 -96.785156 232.09375 -107.359375 227.125 -116.328125 C 222.164062 -125.304688 212.472656 -133.160156 198.046875 -139.890625 C 183.628906 -146.617188 162.160156 -152.546875 133.640625 -157.671875 C 70.828125 -169.523438 39.421875 -200.609375 39.421875 -250.921875 C 39.421875 -269.191406 43.90625 -285.296875 52.875 -299.234375 C 61.851562 -313.171875 74.351562 -324.066406 90.375 -331.921875 C 106.394531 -339.773438 124.984375 -343.703125 146.140625 -343.703125 C 165.359375 -343.703125 183.0625 -340.578125 199.25 -334.328125 C 215.4375 -328.078125 230.578125 -319.34375 244.671875 -308.125 C 252.691406 -300.757812 252.851562 -293.710938 245.15625 -286.984375 C 238.75 -280.566406 231.539062 -280.722656 223.53125 -287.453125 C 211.664062 -296.429688 199.484375 -303.160156 186.984375 -307.640625 C 174.492188 -312.128906 160.71875 -314.375 145.65625 -314.375 C 123.863281 -314.375 105.835938 -309.003906 91.578125 -298.265625 C 77.316406 -287.535156 70.1875 -272.078125 70.1875 -251.890625 C 70.1875 -234.265625 75.875 -220.003906 87.25 -209.109375 C 98.625 -198.210938 119.210938 -190.039062 149.015625 -184.59375 C 190.359375 -177.21875 220.003906 -165.675781 237.953125 -149.96875 C 255.898438 -134.269531 264.875 -112.640625 264.875 -85.078125 C 264.875 -66.171875 259.820312 -49.90625 249.71875 -36.28125 C 239.625 -22.664062 225.925781 -12.253906 208.625 -5.046875 C 191.320312 2.160156 171.929688 5.765625 150.453125 5.765625 Z M 150.453125 5.765625 "/></g></g></g><g fill="#274a78" fill-opacity="1"><g transform="translate(302.178322, 514.572059)"><g><path d="M 47.109375 103.828125 C 43.898438 103.828125 40.773438 103.664062 37.734375 103.34375 C 34.691406 103.03125 31.566406 102.550781 28.359375 101.90625 C 18.742188 100.945312 13.9375 95.660156 13.9375 86.046875 C 13.9375 77.710938 18.101562 74.023438 26.4375 74.984375 C 32.84375 75.953125 39.09375 76.4375 45.1875 76.4375 C 57.039062 76.4375 65.851562 73.789062 71.625 68.5 C 77.394531 63.207031 82.84375 53.992188 87.96875 40.859375 L 103.34375 0 L 20.1875 -211.984375 C 17.945312 -217.429688 17.625 -221.835938 19.21875 -225.203125 C 20.820312 -228.566406 23.867188 -230.25 28.359375 -230.25 L 29.796875 -230.25 C 38.453125 -230.25 44.539062 -226.085938 48.0625 -217.765625 L 116.8125 -36.53125 L 183.140625 -217.28125 C 186.023438 -225.925781 191.957031 -230.25 200.9375 -230.25 C 206.0625 -230.25 209.582031 -228.566406 211.5 -225.203125 C 213.425781 -221.835938 213.429688 -217.429688 211.515625 -211.984375 L 113.921875 50 C 107.191406 68.582031 98.695312 82.195312 88.4375 90.84375 C 78.1875 99.5 64.410156 103.828125 47.109375 103.828125 Z M 47.109375 103.828125 "/></g></g></g><g fill="#274a78" fill-opacity="1"><g transform="translate(533.862179, 514.572059)"><g><path d="M 50.46875 0 C 40.539062 0 35.578125 -5.285156 35.578125 -15.859375 L 35.578125 -214.390625 C 35.578125 -224.960938 40.222656 -230.25 49.515625 -230.25 C 58.804688 -230.25 63.453125 -226.726562 63.453125 -219.6875 L 63.9375 -197.5625 C 71.300781 -208.457031 81.148438 -217.59375 93.484375 -224.96875 C 105.828125 -232.34375 119.851562 -236.03125 135.5625 -236.03125 C 160.238281 -236.03125 180.109375 -228.175781 195.171875 -212.46875 C 210.234375 -196.769531 217.765625 -174.335938 217.765625 -145.171875 L 217.765625 -15.859375 C 217.765625 -5.285156 212.957031 0 203.34375 0 C 193.726562 0 188.921875 -5.285156 188.921875 -15.859375 L 188.921875 -140.84375 C 188.921875 -163.28125 183.550781 -180.101562 172.8125 -191.3125 C 162.070312 -202.53125 148.210938 -208.140625 131.234375 -208.140625 C 118.410156 -208.140625 106.953125 -205.332031 96.859375 -199.71875 C 86.765625 -194.113281 78.910156 -186.582031 73.296875 -177.125 C 67.691406 -167.675781 64.890625 -157.1875 64.890625 -145.65625 L 64.890625 -15.859375 C 64.890625 -5.285156 60.082031 0 50.46875 0 Z M 50.46875 0 "/></g></g></g><g fill="#274a78" fill-opacity="1"><g transform="translate(787.656955, 514.572059)"><g><path d="M 129.3125 5.28125 C 108.800781 5.28125 90.53125 0.234375 74.5 -9.859375 C 58.476562 -19.953125 45.820312 -34.128906 36.53125 -52.390625 C 27.238281 -70.660156 22.59375 -91.65625 22.59375 -115.375 C 22.59375 -139.082031 27.238281 -159.988281 36.53125 -178.09375 C 45.820312 -196.207031 58.476562 -210.3125 74.5 -220.40625 C 90.53125 -230.5 108.800781 -235.546875 129.3125 -235.546875 C 156.875 -235.546875 180.109375 -226.570312 199.015625 -208.625 C 203.179688 -205.414062 205.101562 -201.890625 204.78125 -198.046875 C 204.457031 -194.203125 202.535156 -190.835938 199.015625 -187.953125 C 195.171875 -185.390625 191.722656 -184.269531 188.671875 -184.59375 C 185.628906 -184.914062 182.023438 -186.675781 177.859375 -189.875 C 164.078125 -202.050781 147.894531 -208.140625 129.3125 -208.140625 C 106.875 -208.140625 88.363281 -199.726562 73.78125 -182.90625 C 59.207031 -166.082031 51.921875 -143.570312 51.921875 -115.375 C 51.921875 -87.164062 59.207031 -64.566406 73.78125 -47.578125 C 88.363281 -30.597656 106.875 -22.109375 129.3125 -22.109375 C 148.21875 -22.109375 164.238281 -28.195312 177.375 -40.375 C 181.21875 -43.582031 184.820312 -45.425781 188.1875 -45.90625 C 191.5625 -46.382812 195.171875 -45.34375 199.015625 -42.78125 C 202.535156 -39.894531 204.457031 -36.609375 204.78125 -32.921875 C 205.101562 -29.242188 203.335938 -25.640625 199.484375 -22.109375 C 180.265625 -3.847656 156.875 5.28125 129.3125 5.28125 Z M 129.3125 5.28125 "/></g></g></g><g fill="#274a78" fill-opacity="1"><g transform="translate(1020.78282, 514.572059)"><g><path d="M 97.109375 4.328125 C 74.671875 4.648438 56.476562 -0.472656 42.53125 -11.046875 C 28.59375 -21.628906 21.625 -37.015625 21.625 -57.203125 C 21.625 -72.585938 26.832031 -86.046875 37.25 -97.578125 C 47.664062 -109.117188 60.960938 -118.171875 77.140625 -124.734375 C 93.328125 -131.304688 110.078125 -134.59375 127.390625 -134.59375 C 151.097656 -134.59375 169.84375 -128.984375 183.625 -117.765625 L 183.625 -157.1875 C 183.625 -178.65625 179.132812 -192.675781 170.15625 -199.25 C 161.1875 -205.820312 146.769531 -209.109375 126.90625 -209.109375 C 116.332031 -209.109375 104.710938 -207.503906 92.046875 -204.296875 C 79.390625 -201.085938 67.9375 -196.921875 57.6875 -191.796875 C 48.070312 -187.953125 41.179688 -189.394531 37.015625 -196.125 C 32.203125 -204.457031 34.765625 -210.867188 44.703125 -215.359375 C 56.554688 -221.441406 69.9375 -226.40625 84.84375 -230.25 C 99.75 -234.101562 113.769531 -236.03125 126.90625 -236.03125 C 156.070312 -236.03125 177.539062 -230.421875 191.3125 -219.203125 C 205.09375 -207.984375 211.984375 -187.3125 211.984375 -157.1875 L 211.984375 -29.796875 C 211.984375 -25.628906 212.785156 -23.066406 214.390625 -22.109375 C 215.992188 -21.148438 219.359375 -20.671875 224.484375 -20.671875 C 228.648438 -20.671875 232.175781 -19.945312 235.0625 -18.5 C 237.945312 -17.0625 239.390625 -14.738281 239.390625 -11.53125 C 239.390625 -3.519531 235.382812 1.125 227.375 2.40625 C 224.8125 3.039062 222.085938 3.519531 219.203125 3.84375 C 216.316406 4.164062 213.59375 4.328125 211.03125 4.328125 C 200.132812 4.328125 193.082031 2.082031 189.875 -2.40625 C 186.675781 -6.894531 184.753906 -15.382812 184.109375 -27.875 C 174.171875 -16.976562 161.03125 -8.96875 144.6875 -3.84375 C 128.34375 1.28125 112.484375 4.003906 97.109375 4.328125 Z M 98.546875 -22.109375 C 113.929688 -22.429688 128.269531 -24.832031 141.5625 -29.3125 C 154.863281 -33.800781 165.441406 -40.289062 173.296875 -48.78125 C 181.148438 -57.28125 184.753906 -67.617188 184.109375 -79.796875 C 183.148438 -89.734375 177.703125 -97.179688 167.765625 -102.140625 C 157.828125 -107.109375 145.007812 -109.4375 129.3125 -109.125 C 116.164062 -109.125 103.503906 -106.878906 91.328125 -102.390625 C 79.148438 -97.898438 69.296875 -91.726562 61.765625 -83.875 C 54.234375 -76.03125 50.46875 -66.976562 50.46875 -56.71875 C 50.46875 -44.863281 54.953125 -36.128906 63.921875 -30.515625 C 72.898438 -24.910156 84.441406 -22.109375 98.546875 -22.109375 Z M 98.546875 -22.109375 "/></g></g></g></g></g></svg>